<svg version="1.1" xmlns="http://www.w3.org/2000/svg" xmlns:xlink="http://www.w3.org/1999/xlink" width="579.02403" height="415.06823" viewBox="0,0,579.02403,415.06823"><defs><linearGradient x1="240" y1="-8.43844" x2="240" y2="368.43844" gradientUnits="userSpaceOnUse" id="color-1"><stop offset="0" stop-color="#f930ff"/><stop offset="1" stop-color="#a1a1ff"/></linearGradient></defs><g transform="translate(43.00901,8.43844)"><g data-paper-data="{&quot;isPaintingLayer&quot;:true}" fill-rule="nonzero" stroke-linejoin="miter" stroke-miterlimit="10" stroke-dasharray="" stroke-dashoffset="0" style="mix-blend-mode: normal"><path d="M-19.00901,368.43844v-376.87688h518.01802v376.87688z" fill="url(#color-1)" stroke="none" stroke-width="0" stroke-linecap="butt"/><path d="M238,83.37255c92.78384,0 168,71.77489 168,160.31373c0,88.53883 -75.21616,160.31373 -168,160.31373c-92.78384,0 -168,-71.77489 -168,-160.31373c0,-88.53883 75.21616,-160.31373 168,-160.31373z" fill="#ff005c" stroke="none" stroke-width="0" stroke-linecap="butt"/><path d="M375.09903,130.7085c-0.06309,-0.07849 -0.11382,-0.14508 -0.1462,-0.18858c0.00406,0.00572 0.00845,0.01191 0.01318,0.01861c0.03846,0.05447 0.08301,0.11123 0.13302,0.16997zM472.49789,176.55967c0.07673,-0.62752 0.41807,-1.31499 1.37957,-1.79574c2.23607,-1.11803 3.3541,1.11803 3.3541,1.11803l1.26393,3.11803c0,7.79879 -0.80778,16.09523 0.16992,23.8377c0.63354,5.01707 1.51301,9.97422 1.82698,15.03776c0.14067,2.26867 -0.30317,4.56431 -0.01563,6.81908c0.29412,2.30636 0.61585,4.60969 0.98645,6.905c0.33579,2.07968 1.6705,3.91449 1.99923,5.9953c0.68383,4.3285 -0.72741,9.06549 0.16069,13.3558c0.32332,1.56194 1.19287,2.95869 1.7893,4.43803c1.45273,7.27796 2.09357,16.53596 1.05077,24.01178c-0.14562,1.04398 -0.86685,1.95435 -1,3c-0.71922,5.64807 0.03228,11.89242 0.03228,17.59954c0,3.74531 -0.56094,7.9954 -0.01873,11.69454c0.71827,4.9003 1.05789,9.28536 1.01873,14.30546c-0.01449,1.8582 0.32524,3.75796 -0.06688,5.57438c-0.31456,1.45715 -1.33333,2.66667 -2,4c0.10632,3.85626 -0.39985,6.96885 -0.95185,10.73108c-0.1655,1.12797 0.26784,2.33609 -0.08854,3.419c-0.4167,1.26622 -1.55498,2.17954 -2.14694,3.37392c-0.50404,1.01698 -0.52563,2.24846 -1.11916,3.21595c-0.20093,0.32753 -4.48526,4.61087 -4.8123,4.8123c-0.89751,0.55279 -2.09378,0.4616 -3,1c-0.92079,0.54706 -1.36177,1.78885 -2.35762,2.18307c-1.10329,0.43675 -2.38775,-0.04837 -3.55625,0.15802c-2.02817,0.35823 -4.05509,0.72968 -6.095,1.01355c-5.99094,0.8337 -11.08711,4.33997 -16.73108,5.95185c-1.01736,0.29055 -2.12955,-0.13488 -3.17393,0.0346c-2.08096,0.33769 -3.99404,1.35148 -6,2c-4.88517,0.04647 -9.39087,0.88238 -14.23817,1.25795c-11.08508,0.85889 -22.50269,1.4485 -33.56137,-0.25773c-6.18173,-0.95377 -11.94714,-3.98715 -18.00138,-5.00022c-2.2985,-0.38461 -3.93152,0.67395 -6.3118,-0.07133c-1.25249,-0.39216 -2.10539,-1.62859 -3.32977,-2.10127c-2.72505,-1.05202 -5.1517,-0.80422 -7.95798,-0.79513c-4.15669,0 -9.47401,-0.75431 -13.60597,-0.03125c-2.73031,0.47778 -5.27026,1.74703 -7.97335,2.36035c-4.70234,1.06694 -9.35547,0.96816 -14.02023,1.63861c-3.01725,0.43366 -5.98763,1.51416 -9,2c-4.85297,0.7827 -10.39301,-0.11098 -15.30451,0.03044c-7.10417,0.20455 -14.23507,1.16809 -21.28911,1.98058c-12.92096,-2.53373 -24.73754,1.15932 -37.64126,2.01578c-12.67574,0.84133 -25.54092,-0.80318 -38.21415,0.18227c-6.56299,0.51033 -13.20602,1.96595 -19.72022,2.92913c-8.07711,0.47901 -16.29345,1.36147 -24.39201,0.88891c-3.06603,-0.17891 -6.08405,-0.85363 -9.13808,-1.17838c-5.9854,-0.63647 -11.87942,-0.48411 -17.8562,-0.82125c-11.06888,-0.62438 -22.05649,-3.15217 -33.10507,-4.10585c-4.93601,-0.42606 -9.94178,-0.49127 -14.89041,-0.73664c-13.32613,-0.66076 -26.61804,-0.72551 -39.93867,-1.15429c-8.03948,-0.25878 -16.01664,-1.60157 -24.03529,-2.00151c-9.68443,-0.48302 -19.54841,1.89619 -28.27704,-3.42673c-0.87609,-0.53426 -4.37798,-4.52719 -4.90813,-5.11346c-0.34628,-7.79317 -4.52306,-14.81881 -5.18178,-22.75051c-1.07612,-12.95763 -0.07597,-26.53948 1,-39.4124c0.90956,-10.88193 -0.97616,-21.64964 2.04725,-32.3189c1.09591,-7.60446 1.99874,-15.15058 2.9564,-22.72125c0.42593,-3.36716 -0.01217,-7.41039 -0.01217,-10.75366c0,-7.66667 0,-15.33333 0,-23c0,-3.37816 -0.3937,-7.20974 0.07447,-10.5345c0.66205,-4.70158 1.93347,-8.64183 1.92553,-13.4655c0.06343,-1.3189 -0.38566,-2.76852 0.1903,-3.95671c0.68945,-1.42232 1.94388,-2.63693 3.35299,-3.35299c1.05784,-0.53755 2.38775,0.04837 3.55625,-0.15802c1.03802,-0.18334 1.95936,-0.83216 3,-1c1.97448,-0.31845 4.02921,0.34059 6,0c1.0387,-0.17951 1.94591,-1.00117 3,-1c0.85894,0.00095 1.52186,1.12614 2.37235,1.00594c0.60563,-0.08559 -1.23863,-0.56009 -1.43961,-1.13777c-0.3286,-0.94447 0.15909,-2.01274 0,-3c-0.33539,-2.08134 -1.65407,-3.92039 -2,-6c-0.31627,-1.90126 0.20134,-4.31325 -0.03875,-6.24341c-0.32919,-2.6465 -1.76941,-5.0966 -1.96125,-7.75659c-0.0426,-0.5906 1.00127,-1.12295 0.69995,-1.63269c-0.24313,-0.4113 -0.75444,0.73223 -1.23223,0.73223c-1.60789,0 -3.63082,0.40472 -4.76777,-0.73223c-0.93463,-0.93463 -0.73223,-7.43133 -0.73223,-8.76777c0.06343,-1.3189 -0.38566,-2.76852 0.1903,-3.95671c2.11012,-4.35311 6.3522,-3.8805 10.3097,-3.54329c0.85747,0.07306 1.72739,0.76022 2.53822,0.47189c0.43102,-0.15327 -0.00532,-0.9149 -0.00594,-1.37235c-0.00136,-1 -0.1644,-2.01361 0,-3c0.17329,-1.03975 0.82049,-1.9613 1,-3c0.31831,-1.84186 -0.0418,-3.73825 -0.03227,-5.60738c0.04204,-8.24916 2.28768,-16.93825 1.10726,-25.2677c-0.08007,-0.56498 -0.26041,-1.30028 -0.78691,-1.52027c-0.68783,-0.2874 -1.49836,0.44734 -2.22081,0.26353c-1.62933,-0.41454 -3.58671,-0.68572 -4.62765,-2.00594c-0.61213,-0.77636 -0.47189,-7.434 -0.47189,-8.46178c0,-1.57774 -0.1518,-6.88373 0.73223,-7.76777c1.61734,-1.61734 5.31958,-0.34606 7.36731,-0.69995c1.0387,-0.17951 1.95936,-0.83216 3,-1c3.28652,-0.53006 7.06663,-0.0491 10.40046,-0.03228c2.52455,0.01273 5.70402,-0.33151 7.76777,1.73223c3.48695,3.48695 1.56352,12.84193 0.72841,16.90602c-0.20239,0.98493 -1.10876,1.83088 -1.0344,2.83364c0.04523,0.60997 0.56009,-1.23863 1.13777,-1.43961c0.94447,-0.3286 2.01361,0.1644 3,0c1.03975,-0.17329 1.95936,-0.83216 3,-1c3.30561,-0.53314 7.48712,-0.02431 10.80091,0c1.59702,0.7549 3.89723,0.74108 4.79106,2.2647c0.67792,1.15557 -1.52708,8.63386 -1.73814,9.68361c-0.92761,4.61347 -1.0552,9.38954 -2,14c-0.68844,3.35944 -0.95105,6.06472 -4.39167,7.75405c-1.62881,0.79974 -3.57276,0.66384 -5.32017,1.15286c-2.33799,0.65429 -4.44559,1.95394 -6.68966,2.88045c-0.99473,0.41069 -2.31093,0.35238 -3.00825,1.17207c-0.50671,0.59562 0.10423,1.569 0.0154,2.34593c-0.19252,1.6839 -0.5554,3.34405 -0.85664,5.01194c-1.16406,6.44514 -2.93503,12.93667 -3.71344,19.43704c-0.41348,3.45287 0.60357,6.51441 -0.95041,9.79456c0.71867,-0.50359 1.28729,-1.38665 2.15601,-1.51076c6.79115,-0.97016 6.77083,4.94295 7.76604,10.03906c1.15351,5.90674 0.9466,12.0749 2,18c1.69428,9.52984 4.79885,18.97361 7.05738,28.3915c0.01875,0.07818 2.27263,9.47342 2.30454,9.61986c0.24567,1.12764 -0.20904,2.62026 0.63928,3.40273c0.63257,0.58347 1.67765,-0.47189 2.53822,-0.47189c0.53633,0 1.11791,0.80503 1.53822,0.47189c0.46101,-0.36539 -0.04712,-1.19043 0.09007,-1.76246c0.27163,-1.13261 0.75061,-2.20521 1.12592,-3.30781c1.94555,-2.91833 2.77242,-5.81362 4.49442,-8.8399c5.42324,-9.53094 9.43959,-19.74748 13.42022,-29.96492c1.36175,-3.49532 2.55009,-7.05054 4.06369,-10.48588c0.75884,-1.72232 1.0978,-3.70919 2.30186,-5.15573c1.37254,-1.64895 3.18822,-3.01729 5.17503,-3.82691c1.38491,-0.56435 3.00225,0.08435 4.48511,-0.10956c1.36277,-0.1782 2.63235,-0.86429 4,-1c1.6646,-0.16518 4.73356,1.17666 4.99576,-0.47544c0.33452,-2.10781 0.31081,-4.27828 0.82843,-6.34875c0,-5.1739 1.76147,-11.26372 4.2562,-15.8343c0.81109,-1.48599 1.59599,-3.18971 3.04543,-4.06443c1.19582,-0.72166 2.78413,-0.23832 4.17964,-0.29581c2.98592,-0.12302 6.01126,0 9,0c1.37761,0 7.78348,-0.2024 8.76777,0.73223c1.09514,1.0399 0.41978,2.99277 0.7149,4.47385c0.95935,4.81457 2.2588,9.15841 2.59347,14.10357c0.11162,1.64938 -0.73985,4.55332 0.88057,4.88064c3.52892,0.71283 7.36862,-1.21114 11,0c1.31061,0.43712 2.02999,1.87464 3.04498,2.81196c2.03153,3.64736 3.79966,7.56652 6.0533,11.07401c3.97698,6.18964 10.19184,11.24225 14.73581,17.04283c5.13178,6.55093 9.43462,13.69562 14.69059,20.16271c3.12567,3.84591 6.29179,7.66388 9.3751,11.54384c0.58562,0.73693 0.822,1.95242 1.71789,2.24123c0.72148,0.23258 1.28269,-0.88173 2.02516,-1.0346c3.71395,-0.76464 4.09641,0.24463 7.09076,-2.48899c-0.46187,-4.67552 -1.32361,-9.12866 -2.67241,-13.63373c-0.62812,-2.09795 -2.71025,-8.45293 -2.51306,-10.5649c0.16361,-1.75238 0.67435,-3.75445 2.03339,-4.87276c2.71386,-2.23315 8.58392,1.68879 10.43367,-1.43367c2.68902,-4.5392 1.51893,-10.23854 1.36141,-15.3687c-0.06946,-2.26218 -1.41731,-4.85201 -0.24086,-6.78546c0.86401,-1.41997 3.25566,-0.69938 4.90755,-0.88406c0.5565,-0.06222 6.37173,0.06569 6.59954,0.03228c1.04294,-0.15293 1.9474,-0.94393 3,-1c0.90676,-0.0483 1.75513,0.46663 2.63269,0.69995c-1.5812,-3.33253 0.87273,-7.51065 1.42239,-10.98504c1.02496,-6.47877 1.19392,-13.22381 1.81198,-19.75677c0.40476,-4.27838 0.24767,-6.67864 2.31895,-10.6507c2.62755,-5.0388 6.19167,-8.04319 11.9681,-8.32757c1.68647,-0.08302 3.79196,-0.44502 5.01411,0.72007c0.89747,0.85557 0.75449,7.59048 0.76425,8.83087c0.07843,9.97631 0.14889,19.81338 1.05236,29.75162c1.18676,13.05437 0.91562,26.08133 0.91562,39.18527c0,3.13004 -1.36738,9.48834 1.138,12.11137c0.65526,0.68603 4.79818,1.35131 5.06771,-0.10446c0.4588,-2.4781 -0.22406,-5.05763 0.0729,-7.56029c0.01199,-0.10107 1.98867,-9.64842 2.0517,-9.92781c0.4833,-2.14214 -0.03754,-4.87123 1.53168,-6.40743c0.79233,-0.77566 6.36411,-0.60235 8.23755,-0.57908c4.09418,-1.08261 4.76955,-7.7855 6.04474,-11.3693c2.1528,-6.05027 4.43788,-12.12042 6.33631,-18.25448c0.24322,-0.78586 2.60865,-9.7932 2.85714,-10.16332c1.20532,-1.79535 2.80465,-3.76548 4.91593,-4.23302c1.55995,-0.34545 2.76918,1.62103 4.25773,2.20155c3.99068,1.55633 9.12648,0.56076 11.29831,5.32958c0.54738,1.20191 0.1548,2.63727 0.1903,3.95748c0.07323,2.72374 0.12846,5.45286 -0.0081,8.17416c-0.23487,4.68009 -1.0101,9.14469 -0.9125,13.845c0.02932,1.60582 0.08068,3.21139 0.08795,4.81746c0.00491,1.08514 -0.76648,2.43883 -0.05141,3.25506c0.5396,0.61592 1.56934,-0.51029 2.38406,-0.59245c2.34033,-0.23599 7.62866,0.14331 8.97051,1.96147c0.08026,0.10875 0.74943,9.49542 0.84116,10.76177c0.70715,9.76319 1.01682,19.80903 3.40101,29.31971c0.40527,1.61664 0.92204,3.20958 1.21268,4.85071c0.15336,0.86594 -0.63669,2.1764 0.11317,2.63583c0.95832,0.58714 2.21627,-0.37799 3.33036,-0.52605c1.04756,-0.13921 2.1016,-0.22436 3.15251,-0.33549c6.61146,-0.69914 13.07292,-1.60558 19.62022,-2.76099c4.60734,-0.81248 9.17308,-2.10836 13.784,-2.84009c0.85793,-0.13615 1.91072,0.41816 2.60387,-0.10541c0.41345,-0.3123 -0.46678,-0.94714 -0.52949,-1.46147c-0.11452,-0.93926 0.07653,-1.89511 0.00521,-2.83863c-0.22455,-2.97083 -0.76253,-5.90963 -1.15619,-8.86281c-0.25885,-1.94182 -1.24102,-3.91604 -0.79335,-5.8232c1.4396,-6.133 7.19682,-5.07788 11.89586,-5.91446c0.94419,-0.1681 2.04075,0.11969 2.84985,-0.39521c1.15849,-0.73725 0.2643,-2.74323 0.19782,-4.11481c-0.07936,-1.63732 -0.21921,-3.27114 -0.32847,-4.90674c-0.31552,-4.72313 -0.70284,-9.40818 -0.67073,-14.14415c0.0126,-1.85822 -0.37779,-3.77011 0.06688,-5.57438c0.45371,-1.84099 1.70595,-3.38675 2.55893,-5.08012c3.56655,-2.46965 6.79931,-4.40009 11.0143,-5.69296c0.58489,-0.1794 1.44301,0.35806 1.83179,-0.11431c0.34078,-0.41405 -0.42038,-1.00422 -0.47189,-1.53799c-0.10754,-1.1143 -0.00043,-2.23895 -0.00064,-3.35842c-0.00094,-4.99013 -0.00857,-9.98051 -0.04504,-14.97054c-0.02009,-2.74935 0.45272,-5.68561 -1.39566,-8.09608c-0.63122,-0.82317 -1.82922,-0.99936 -2.64364,-1.64183c-1.02624,-0.80957 -2.99795,-3.14503 -4.05303,-4.04472c-2.92954,-2.49809 -8.32361,-4.65197 -5.33251,-10.42717c0.92384,-1.78374 5.79802,-0.64469 7.57006,-0.92919c3.76555,-0.60456 7.05519,-3.38856 9.95652,-5.57313c4.0702,-2.71501 8.20858,-7.3553 13.41444,-2.49768c1.1136,1.03911 0.42365,3.01911 0.52949,4.53853c0.13162,1.8896 0.66612,3.72953 0.96772,5.59954c0.3421,2.12115 -0.77456,4.38554 -0.15802,6.44375c0.17995,0.60075 0.99705,0.7638 1.45807,1.18894c1.15269,1.06298 1.68689,3.00813 3.18894,3.45807c4.84199,1.45042 12.13404,-3.32332 15.25872,3.42023c0.9719,2.09752 -0.28553,9.05114 -0.61923,11.39378c-0.86823,6.09514 -1.47008,12.27401 -2.95816,18.25132c-0.38517,1.51314 -0.77882,3.02414 -1.15551,4.53942c-0.24083,0.96878 -1.44903,2.25608 -0.69698,2.91255c0.80845,0.70571 2.0584,-0.6337 3.1188,-0.7985c1.78738,-0.27778 10.82447,-1.02134 11.78224,-0.25448c1.56884,1.25613 0.71437,3.96721 0.80911,5.97473c0.38618,8.18343 -0.96153,16.84405 -1.42927,25.02956c-0.18093,3.16619 -0.74683,6.32824 -0.59039,9.49574c0.04461,0.90326 -0.06636,2.09017 0.65758,2.63217c1.04454,0.78204 2.58471,0.39767 3.8443,0.73836c1.63223,0.44147 3.21428,1.0515 4.81265,1.60311c1.20477,0.41577 3.0867,2.01607 3.71436,0.90685c0.61072,-1.07926 0.40562,-2.44968 0.70972,-3.65188c0.79771,-3.15355 1.71711,-6.28059 2.35331,-9.47065c0.60009,-2.961 0.95056,-5.99099 0.96431,-9.01216c0.00208,-0.45745 0.40034,-1.14058 0.00594,-1.37235c-0.4624,-0.27173 -1.00235,0.49403 -1.53822,0.47189c-1.60656,-0.06635 -3.64143,0.41508 -4.76787,-0.73234c-1.14993,-1.17135 -0.61843,-3.23216 -0.73175,-4.86971c-0.32213,-4.65477 0.65105,-9.28878 0.99963,-13.89796c0.14615,-1.9325 -0.51962,-4.28831 0.73223,-5.76777c0.74803,-0.88403 6.27461,-0.73223 7.76777,-0.73223c7,0 14,0 21,0c0,0 0.20725,0 0.5024,0.05967z" fill="#0e0005" stroke="none" stroke-width="0.5" stroke-linecap="butt"/><path d="M31.49099,273.25l39,-96l56,-3l33,102z" fill="#a20082" stroke="#a20082" stroke-width="3" stroke-linecap="round"/><path d="M23.49099,221.25v-33h49v33z" fill="#a20082" stroke="#a20082" stroke-width="3" stroke-linecap="butt"/><path d="M0.49099,150.25v-30h41v30z" fill="#a20082" stroke="#a20082" stroke-width="3" stroke-linecap="butt"/><path d="M130.49099,226.25v-35h51v35z" fill="#a20082" stroke="#a20082" stroke-width="3" stroke-linecap="butt"/><path d="M98.99099,78.25c42.24978,0 76.5,33.8025 76.5,75.5c0,41.6975 -34.25022,75.5 -76.5,75.5c-42.24978,0 -76.5,-33.8025 -76.5,-75.5c0,-41.6975 34.25022,-75.5 76.5,-75.5z" fill="#a20082" stroke="#a20082" stroke-width="1.5" stroke-linecap="butt"/><path d="M376.27763,188.86726l0.35601,2.21806c0.37927,1.24154 0.75853,2.48309 1.1378,3.72463c2.29176,3.0897 5.78788,6.14785 2.36271,10.43525c-0.84676,1.05992 -2.62479,0.68752 -3.93211,1.04996c-0.3175,0.08802 -0.89776,-0.0254 -0.94144,0.30118c-0.23956,1.79119 1.19787,3.4786 1.20538,5.28573c0.01228,2.9569 -0.99669,6.35855 -1.47042,9.2848c-0.95886,5.92289 -1.91772,11.84577 -2.87658,17.76866c-0.91901,5.6767 -1.13149,11.91237 -3.80227,17.01928c-0.65177,4.03621 -1.96397,8.59536 -4.16626,12.0928c-0.58765,0.93324 -1.78466,1.40205 -2.3028,2.3756c-0.40444,0.75992 -0.00533,1.76272 -0.32507,2.56198c-0.73989,1.84955 -1.17647,4.13402 -2.8098,5.27442c-1.23495,0.86225 -3.00955,-0.16407 -4.51573,-0.15971c-1.58959,0.00461 -3.17662,0.12821 -4.76514,0.18662c-8.79338,0.32332 -17.54728,-1.77814 -26.21845,-3.202c-2.74773,-0.45119 -7.80627,-0.84091 -9.52891,-3.52965c-1.95962,-3.05863 1.01,-5.36738 1.76506,-7.7566c1.21794,-3.8539 1.33418,-8.44322 1.98167,-12.44277c0.41606,-2.4557 1.39075,-4.78538 2.20168,-7.14037c2.06109,-5.98553 1.8062,-13.3023 3.12621,-19.48867c0.65782,-3.08294 1.45266,-6.1509 2.54273,-9.10877c0.81232,-2.2042 2.29468,-4.13357 3.01711,-6.36884c0.92214,-2.8532 0.3191,-6.44103 0.51332,-9.42822c0.06315,-0.97128 0.3191,-2.03853 -0.09713,-2.91837c-1.17982,-2.49391 -5.31255,-3.40668 -5.53145,-6.15689c-0.11046,-1.38781 2.07845,-1.8974 2.83845,-3.06386c0.75027,-1.15151 0.77096,-2.71308 1.62639,-3.78878c0.38242,-0.48089 1.55895,0.0839 1.77674,-0.49062c0.17632,-0.46511 -0.89907,-0.42584 -1.34861,-0.63876c-1.83893,-4.03624 -3.9572,-8.26563 -6.13927,-12.13711c-2.28836,-4.06005 -5.76868,-8.70926 -8.81248,-12.21696c-0.8549,-0.98519 -2.07105,-1.64074 -2.83303,-2.69943c-0.60558,-0.84139 -0.65337,-1.9846 -1.18064,-2.87715c-2.1983,-3.7212 -6.35152,-7.15372 -8.00483,-11.17846c-0.43129,-1.04991 -0.2535,-2.26972 -0.59084,-3.35347c-0.71438,-2.29509 -2.26801,-4.26933 -2.98973,-6.56213c-1.12556,-3.57574 -1.16735,-6.25924 -3.41433,-9.45116c-0.39008,-2.15405 -0.63153,-4.33604 -1.09855,-6.47472c-0.15019,-0.68775 -0.07458,-1.57298 -0.61914,-2.01909c-0.47555,-0.38957 -1.2344,0.07866 -1.84423,0.0011c-1.23208,-0.1567 -2.55613,-0.13079 -3.65945,-0.7011c-4.78565,-2.47371 -8.24979,-7.89678 -8.65627,-13.15458c-0.12806,-1.65643 -1.08892,-3.67234 -0.06881,-4.98365c1.10037,-1.41448 3.36999,-1.33034 5.14897,-1.54671c2.23164,-0.27143 7.53877,0.85742 9.67495,1.56628c1.51385,0.50235 2.86082,2.31038 4.3981,1.88511c1.84354,-0.51 4.61348,-3.97049 5.78508,-5.21962c1.78046,-1.89828 3.95286,-3.49576 6.31093,-4.59714c0.99142,-0.64193 1.81387,-1.70557 2.97425,-1.92578c4.15492,-0.78848 6.46205,2.30007 9.92968,3.47349c6.53193,2.21034 14.16809,1.17849 20.7301,3.35601c1.00045,0.33199 1.80497,1.12338 2.80163,1.46658c2.2062,0.75969 4.68256,0.42383 6.91003,1.11867c1.10321,0.34414 2.1062,0.96732 3.08554,1.58084c0.68398,0.42848 1.07138,1.56008 1.87787,1.52853c0.53557,-0.02095 -0.09635,-1.10256 0.08903,-1.60546c0.40284,-1.09285 0.96276,-2.13782 1.64007,-3.08536c2.00136,-2.79989 4.13856,-5.68061 6.48147,-8.22636c1.07745,-1.39029 1.71698,-3.27787 3.23236,-4.17086c5.13356,-3.02512 10.43231,2.59331 12.78301,6.55395c1.15664,1.9488 1.10238,4.42245 2.04194,6.48469c0.54416,1.19436 1.3164,2.31352 1.61231,3.5922c0.14335,0.61941 -0.9307,1.62363 -0.34695,1.87552c0.85866,0.37051 1.7322,-0.81753 2.66561,-0.87501c1.96462,-0.12098 3.85872,0.97798 5.82694,0.95705c1.05403,-0.01121 2.06716,-0.50834 3.12125,-0.50772c2.96702,0.00176 6.3491,0.99516 9.2848,1.47042c2.90512,0.47031 6.50366,0.56838 9.27448,1.53415c3.53371,1.23168 5.84176,4.11303 9.09271,5.86964c0.55156,0.76464 0.93543,1.68435 1.65468,2.29392c0.8588,0.72784 2.20132,0.79131 2.96338,1.6199c0.79671,0.86626 0.58308,2.44093 1.47627,3.20732c2.92348,2.50844 9.19363,1.4904 12.6695,2.66216c2.96269,0.99877 5.99871,3.10372 8.77466,4.55685c2.71716,1.42236 8.58619,3.23734 8.59215,7.26379c0.00889,6.00655 -2.8665,4.72371 -6.35611,5.87997c-2.59998,0.86149 -5.04172,2.20768 -7.69934,2.87037c-3.0442,0.75909 -7.16678,-0.06385 -9.96863,1.23977c-1.07844,0.50177 -1.90293,1.42762 -2.8544,2.14143c-4.46358,3.21972 -9.49647,6.21057 -13.65233,9.83287c-2.87355,2.50461 -5.46627,5.33453 -8.40095,7.81086c-2.84911,2.40412 -6.37583,4.0895 -9.13909,6.58755c-5.45435,4.93086 -11.02417,9.75389 -16.57341,14.57532c-3.3023,2.86918 -6.07762,6.12415 -9.63533,8.70178c0,0 -0.06672,0.04813 -0.18469,0.11482z" fill="#a20082" stroke="none" stroke-width="0.5" stroke-linecap="butt"/><g fill="#fcb3ff" stroke="none" stroke-width="0" stroke-linecap="butt"><path d="M65.99099,28.88739c0,5.24671 -24.40048,9.5 -54.5,9.5c-30.09952,0 -54.5,-4.2533 -54.5,-9.5c0,-5.24671 24.40048,-9.5 54.5,-9.5c30.09952,0 54.5,4.25329 54.5,9.5z" data-paper-data="{&quot;index&quot;:null}"/><path d="M136.99099,54.38739c0,5.52284 -25.29591,10 -56.5,10c-31.20409,0 -56.5,-4.47715 -56.5,-10c0,-5.52284 25.29591,-10 56.5,-10c31.20409,0 56.5,4.47716 56.5,10z" data-paper-data="{&quot;index&quot;:null}"/><path d="M205.99099,28.88739c0,5.24671 -23.28119,9.5 -52,9.5c-28.71881,0 -52,-4.2533 -52,-9.5c0,-5.24671 23.2812,-9.5 52,-9.5c28.71881,0 52,4.25329 52,9.5z" data-paper-data="{&quot;index&quot;:null}"/></g><path d="M383.09903,156.7085c-0.06309,-0.07849 -0.11382,-0.14508 -0.1462,-0.18858c0.00406,0.00572 0.00845,0.01191 0.01318,0.01861c0.03846,0.05447 0.08301,0.11123 0.13302,0.16997zM480.49789,202.55967c0.07673,-0.62752 0.41807,-1.31499 1.37957,-1.79574c2.23607,-1.11803 3.3541,1.11803 3.3541,1.11803l1.26393,3.11803c0,7.79879 -0.80778,16.09523 0.16992,23.8377c0.63354,5.01707 1.51301,9.97422 1.82698,15.03776c0.14067,2.26867 -0.30317,4.56431 -0.01563,6.81908c0.29412,2.30636 0.61585,4.60969 0.98645,6.905c0.33579,2.07968 1.6705,3.91449 1.99923,5.9953c0.68383,4.3285 -0.72741,9.06549 0.16069,13.3558c0.32332,1.56194 1.19287,2.95869 1.7893,4.43803c1.45273,7.27796 2.09357,16.53596 1.05077,24.01178c-0.14562,1.04398 -0.86685,1.95435 -1,3c-0.71922,5.64807 0.03228,11.89242 0.03228,17.59954c0,3.74531 -0.56094,7.9954 -0.01873,11.69454c0.71827,4.9003 1.05789,9.28536 1.01873,14.30546c-0.01449,1.8582 0.32524,3.75796 -0.06688,5.57438c-0.31456,1.45715 -1.33333,2.66667 -2,4c0.10632,3.85626 -0.39985,6.96885 -0.95185,10.73108c-0.1655,1.12797 0.26784,2.33609 -0.08854,3.419c-0.4167,1.26622 -1.55498,2.17954 -2.14694,3.37392c-0.50404,1.01698 -0.52563,2.24846 -1.11916,3.21595c-0.20093,0.32753 -4.48526,4.61087 -4.8123,4.8123c-0.89751,0.55279 -2.09378,0.4616 -3,1c-0.92079,0.54706 -1.36177,1.78885 -2.35762,2.18307c-1.10329,0.43675 -2.38775,-0.04837 -3.55625,0.15802c-2.02817,0.35823 -4.05509,0.72968 -6.095,1.01355c-5.99094,0.8337 -11.08711,4.33997 -16.73108,5.95185c-1.01736,0.29055 -2.12955,-0.13488 -3.17393,0.0346c-2.08096,0.33769 -3.99404,1.35148 -6,2c-4.88517,0.04647 -9.39087,0.88238 -14.23817,1.25795c-11.08508,0.85889 -22.50269,1.4485 -33.56137,-0.25773c-6.18173,-0.95377 -11.94714,-3.98715 -18.00138,-5.00022c-2.2985,-0.38461 -3.93152,0.67395 -6.3118,-0.07133c-1.25249,-0.39216 -2.10539,-1.62859 -3.32977,-2.10127c-2.72505,-1.05202 -5.1517,-0.80422 -7.95798,-0.79513c-4.15669,0 -9.47401,-0.75431 -13.60597,-0.03125c-2.73031,0.47778 -5.27026,1.74703 -7.97335,2.36035c-4.70234,1.06694 -9.35547,0.96816 -14.02023,1.63861c-3.01725,0.43366 -5.98763,1.51416 -9,2c-4.85297,0.7827 -10.39301,-0.11098 -15.30451,0.03044c-7.10417,0.20455 -14.23507,1.16809 -21.28911,1.98058c-12.92096,-2.53373 -24.73754,1.15932 -37.64126,2.01578c-12.67574,0.84133 -25.54092,-0.80318 -38.21415,0.18227c-6.56299,0.51033 -13.20602,1.96595 -19.72022,2.92913c-8.07711,0.47901 -16.29345,1.36147 -24.39201,0.88891c-3.06603,-0.17891 -6.08405,-0.85363 -9.13808,-1.17838c-5.9854,-0.63647 -11.87942,-0.48411 -17.8562,-0.82125c-11.06888,-0.62438 -22.05649,-3.15217 -33.10507,-4.10585c-4.93601,-0.42606 -9.94178,-0.49127 -14.89041,-0.73664c-13.32613,-0.66076 -26.61804,-0.72551 -39.93867,-1.15429c-8.03948,-0.25878 -16.01664,-1.60157 -24.03529,-2.00151c-9.68443,-0.48302 -19.54841,1.89619 -28.27704,-3.42673c-0.87609,-0.53426 -4.37798,-4.52719 -4.90813,-5.11346c-0.34628,-7.79317 -4.52306,-14.81881 -5.18178,-22.75051c-1.07612,-12.95763 -0.07597,-26.53948 1,-39.4124c0.90956,-10.88193 -0.97616,-21.64964 2.04725,-32.3189c1.09591,-7.60446 1.99874,-15.15058 2.9564,-22.72125c0.42593,-3.36716 -0.01217,-7.41039 -0.01217,-10.75366c0,-7.66667 0,-15.33333 0,-23c0,-3.37816 -0.3937,-7.20974 0.07447,-10.5345c0.66205,-4.70158 1.93347,-8.64183 1.92553,-13.4655c0.06343,-1.3189 -0.38566,-2.76852 0.1903,-3.95671c0.68945,-1.42232 1.94388,-2.63693 3.35299,-3.35299c1.05784,-0.53755 2.38775,0.04837 3.55625,-0.15802c1.03802,-0.18334 1.95936,-0.83216 3,-1c1.97448,-0.31845 4.02921,0.34059 6,0c1.0387,-0.17951 1.94591,-1.00117 3,-1c0.85894,0.00095 1.52186,1.12614 2.37235,1.00594c0.60563,-0.08559 -1.23863,-0.56009 -1.43961,-1.13777c-0.3286,-0.94447 0.15909,-2.01274 0,-3c-0.33539,-2.08134 -1.65407,-3.92039 -2,-6c-0.31627,-1.90126 0.20134,-4.31325 -0.03875,-6.24341c-0.32919,-2.6465 -1.76941,-5.0966 -1.96125,-7.75659c-0.0426,-0.5906 1.00127,-1.12295 0.69995,-1.63269c-0.24313,-0.4113 -0.75444,0.73223 -1.23223,0.73223c-1.60789,0 -3.63082,0.40472 -4.76777,-0.73223c-0.93463,-0.93463 -0.73223,-7.43133 -0.73223,-8.76777c0.06343,-1.3189 -0.38566,-2.76852 0.1903,-3.95671c2.11012,-4.35311 6.3522,-3.8805 10.3097,-3.54329c0.85747,0.07306 1.72739,0.76022 2.53822,0.47189c0.43102,-0.15327 -0.00532,-0.9149 -0.00594,-1.37235c-0.00136,-1 -0.1644,-2.01361 0,-3c0.17329,-1.03975 0.82049,-1.9613 1,-3c0.31831,-1.84186 -0.0418,-3.73825 -0.03227,-5.60738c0.04204,-8.24916 2.28768,-16.93825 1.10726,-25.2677c-0.08007,-0.56498 -0.26041,-1.30028 -0.78691,-1.52027c-0.68783,-0.2874 -1.49836,0.44734 -2.22081,0.26353c-1.62933,-0.41454 -3.58671,-0.68572 -4.62765,-2.00594c-0.61213,-0.77636 -0.47189,-7.434 -0.47189,-8.46178c0,-1.57774 -0.1518,-6.88373 0.73223,-7.76777c1.61734,-1.61734 5.31958,-0.34606 7.36731,-0.69995c1.0387,-0.17951 1.95936,-0.83216 3,-1c3.28652,-0.53006 7.06663,-0.0491 10.40046,-0.03228c2.52455,0.01273 5.70402,-0.33151 7.76777,1.73223c3.48695,3.48695 1.56352,12.84193 0.72841,16.90602c-0.20239,0.98493 -1.10876,1.83088 -1.0344,2.83364c0.04523,0.60997 0.56009,-1.23863 1.13777,-1.43961c0.94447,-0.3286 2.01361,0.1644 3,0c1.03975,-0.17329 1.95936,-0.83216 3,-1c3.30561,-0.53314 7.48712,-0.02431 10.80091,0c1.59702,0.7549 3.89723,0.74108 4.79106,2.2647c0.67792,1.15557 -1.52708,8.63386 -1.73814,9.68361c-0.92761,4.61347 -1.0552,9.38954 -2,14c-0.68844,3.35944 -0.95105,6.06472 -4.39167,7.75405c-1.62881,0.79974 -3.57276,0.66384 -5.32017,1.15286c-2.33799,0.65429 -4.44559,1.95394 -6.68966,2.88045c-0.99473,0.41069 -2.31093,0.35238 -3.00825,1.17207c-0.50671,0.59562 0.10423,1.569 0.0154,2.34593c-0.19252,1.6839 -0.5554,3.34405 -0.85664,5.01194c-1.16406,6.44514 -2.93503,12.93667 -3.71344,19.43704c-0.41348,3.45287 0.60357,6.51441 -0.95041,9.79456c0.71867,-0.50359 1.28729,-1.38665 2.15601,-1.51076c6.79115,-0.97016 6.77083,4.94295 7.76604,10.03906c1.15351,5.90674 0.9466,12.0749 2,18c1.69428,9.52984 4.79885,18.97361 7.05738,28.3915c0.01875,0.07818 2.27263,9.47342 2.30454,9.61986c0.24567,1.12764 -0.20904,2.62026 0.63928,3.40273c0.63257,0.58347 1.67765,-0.47189 2.53822,-0.47189c0.53633,0 1.11791,0.80503 1.53822,0.47189c0.46101,-0.36539 -0.04712,-1.19043 0.09007,-1.76246c0.27163,-1.13261 0.75061,-2.20521 1.12592,-3.30781c1.94555,-2.91833 2.77242,-5.81362 4.49442,-8.8399c5.42324,-9.53094 9.43959,-19.74748 13.42022,-29.96492c1.36175,-3.49532 2.55009,-7.05054 4.06369,-10.48588c0.75884,-1.72232 1.0978,-3.70919 2.30186,-5.15573c1.37254,-1.64895 3.18822,-3.01729 5.17503,-3.82691c1.38491,-0.56435 3.00225,0.08435 4.48511,-0.10956c1.36277,-0.1782 2.63235,-0.86429 4,-1c1.6646,-0.16518 4.73356,1.17666 4.99576,-0.47544c0.33452,-2.10781 0.31081,-4.27828 0.82843,-6.34875c0,-5.1739 1.76147,-11.26372 4.2562,-15.8343c0.81109,-1.48599 1.59599,-3.18971 3.04543,-4.06443c1.19582,-0.72166 2.78413,-0.23832 4.17964,-0.29581c2.98592,-0.12302 6.01126,0 9,0c1.37761,0 7.78348,-0.2024 8.76777,0.73223c1.09514,1.0399 0.41978,2.99277 0.7149,4.47385c0.95935,4.81457 2.2588,9.15841 2.59347,14.10357c0.11162,1.64938 -0.73985,4.55332 0.88057,4.88064c3.52892,0.71283 7.36862,-1.21114 11,0c1.31061,0.43712 2.02999,1.87464 3.04498,2.81196c2.03153,3.64736 3.79966,7.56652 6.0533,11.07401c3.97698,6.18964 10.19184,11.24225 14.73581,17.04283c5.13178,6.55093 9.43462,13.69562 14.69059,20.16271c3.12567,3.84591 6.29179,7.66388 9.3751,11.54384c0.58562,0.73693 0.822,1.95242 1.71789,2.24123c0.72148,0.23258 1.28269,-0.88173 2.02516,-1.0346c3.71395,-0.76464 4.09641,0.24463 7.09076,-2.48899c-0.46187,-4.67552 -1.32361,-9.12866 -2.67241,-13.63373c-0.62812,-2.09795 -2.71025,-8.45293 -2.51306,-10.5649c0.16361,-1.75238 0.67435,-3.75445 2.03339,-4.87276c2.71386,-2.23315 8.58392,1.68879 10.43367,-1.43367c2.68902,-4.5392 1.51893,-10.23854 1.36141,-15.3687c-0.06946,-2.26218 -1.41731,-4.85201 -0.24086,-6.78546c0.86401,-1.41997 3.25566,-0.69938 4.90755,-0.88406c0.5565,-0.06222 6.37173,0.06569 6.59954,0.03228c1.04294,-0.15293 1.9474,-0.94393 3,-1c0.90676,-0.0483 1.75513,0.46663 2.63269,0.69995c-1.5812,-3.33253 0.87273,-7.51065 1.42239,-10.98504c1.02496,-6.47877 1.19392,-13.22381 1.81198,-19.75677c0.40476,-4.27838 0.24767,-6.67864 2.31895,-10.6507c2.62755,-5.0388 6.19167,-8.04319 11.9681,-8.32757c1.68647,-0.08302 3.79196,-0.44502 5.01411,0.72007c0.89747,0.85557 0.75449,7.59048 0.76425,8.83087c0.07843,9.97631 0.14889,19.81338 1.05236,29.75162c1.18676,13.05437 0.91562,26.08133 0.91562,39.18527c0,3.13004 -1.36738,9.48834 1.138,12.11137c0.65526,0.68603 4.79818,1.35131 5.06771,-0.10446c0.4588,-2.4781 -0.22406,-5.05763 0.0729,-7.56029c0.01199,-0.10107 1.98867,-9.64842 2.0517,-9.92781c0.4833,-2.14214 -0.03754,-4.87123 1.53168,-6.40743c0.79233,-0.77566 6.36411,-0.60235 8.23755,-0.57908c4.09418,-1.08261 4.76955,-7.7855 6.04474,-11.3693c2.1528,-6.05027 4.43788,-12.12042 6.33631,-18.25448c0.24322,-0.78586 2.60865,-9.7932 2.85714,-10.16332c1.20532,-1.79535 2.80465,-3.76548 4.91593,-4.23302c1.55995,-0.34545 2.76918,1.62103 4.25773,2.20155c3.99068,1.55633 9.12648,0.56076 11.29831,5.32958c0.54738,1.20191 0.1548,2.63727 0.1903,3.95748c0.07323,2.72374 0.12846,5.45286 -0.0081,8.17416c-0.23487,4.68009 -1.0101,9.14469 -0.9125,13.845c0.02932,1.60582 0.08068,3.21139 0.08795,4.81746c0.00491,1.08514 -0.76648,2.43883 -0.05141,3.25506c0.5396,0.61592 1.56934,-0.51029 2.38406,-0.59245c2.34033,-0.23599 7.62866,0.14331 8.97051,1.96147c0.08026,0.10875 0.74943,9.49542 0.84116,10.76177c0.70715,9.76319 1.01682,19.80903 3.40101,29.31971c0.40527,1.61664 0.92204,3.20958 1.21268,4.85071c0.15336,0.86594 -0.63669,2.1764 0.11317,2.63583c0.95832,0.58714 2.21627,-0.37799 3.33036,-0.52605c1.04756,-0.13921 2.1016,-0.22436 3.15251,-0.33549c6.61146,-0.69914 13.07292,-1.60558 19.62022,-2.76099c4.60734,-0.81248 9.17308,-2.10836 13.784,-2.84009c0.85793,-0.13615 1.91072,0.41816 2.60387,-0.10541c0.41345,-0.3123 -0.46678,-0.94714 -0.52949,-1.46147c-0.11452,-0.93926 0.07653,-1.89511 0.00521,-2.83863c-0.22455,-2.97083 -0.76253,-5.90963 -1.15619,-8.86281c-0.25885,-1.94182 -1.24102,-3.91604 -0.79335,-5.8232c1.4396,-6.133 7.19682,-5.07788 11.89586,-5.91446c0.94419,-0.1681 2.04075,0.11969 2.84985,-0.39521c1.15849,-0.73725 0.2643,-2.74323 0.19782,-4.11481c-0.07936,-1.63732 -0.21921,-3.27114 -0.32847,-4.90674c-0.31552,-4.72313 -0.70284,-9.40818 -0.67073,-14.14415c0.0126,-1.85822 -0.37779,-3.77011 0.06688,-5.57438c0.45371,-1.84099 1.70595,-3.38675 2.55893,-5.08012c3.56655,-2.46965 6.79931,-4.40009 11.0143,-5.69296c0.58489,-0.1794 1.44301,0.35806 1.83179,-0.11431c0.34078,-0.41405 -0.42038,-1.00422 -0.47189,-1.53799c-0.10754,-1.1143 -0.00043,-2.23895 -0.00064,-3.35842c-0.00094,-4.99013 -0.00857,-9.98051 -0.04504,-14.97054c-0.02009,-2.74935 0.45272,-5.68561 -1.39566,-8.09608c-0.63122,-0.82317 -1.82922,-0.99936 -2.64364,-1.64183c-1.02624,-0.80957 -2.99795,-3.14503 -4.05303,-4.04472c-2.92954,-2.49809 -8.32361,-4.65197 -5.33251,-10.42717c0.92384,-1.78374 5.79802,-0.64469 7.57006,-0.92919c3.76555,-0.60456 7.05519,-3.38856 9.95652,-5.57313c4.0702,-2.71501 8.20858,-7.3553 13.41444,-2.49768c1.1136,1.03911 0.42365,3.01911 0.52949,4.53853c0.13162,1.8896 0.66612,3.72953 0.96772,5.59954c0.3421,2.12115 -0.77456,4.38554 -0.15802,6.44375c0.17995,0.60075 0.99705,0.7638 1.45807,1.18894c1.15269,1.06298 1.68689,3.00813 3.18894,3.45807c4.84199,1.45042 12.13404,-3.32332 15.25872,3.42023c0.9719,2.09752 -0.28553,9.05114 -0.61923,11.39378c-0.86823,6.09514 -1.47008,12.27401 -2.95816,18.25132c-0.38517,1.51314 -0.77882,3.02414 -1.15551,4.53942c-0.24083,0.96878 -1.44903,2.25608 -0.69698,2.91255c0.80845,0.70571 2.0584,-0.6337 3.1188,-0.7985c1.78738,-0.27778 10.82447,-1.02134 11.78224,-0.25448c1.56884,1.25613 0.71437,3.96721 0.80911,5.97473c0.38618,8.18343 -0.96153,16.84405 -1.42927,25.02956c-0.18093,3.16619 -0.74683,6.32824 -0.59039,9.49574c0.04461,0.90326 -0.06636,2.09017 0.65758,2.63217c1.04454,0.78204 2.58471,0.39767 3.8443,0.73836c1.63223,0.44147 3.21428,1.0515 4.81265,1.60311c1.20477,0.41577 3.0867,2.01607 3.71436,0.90685c0.61072,-1.07926 0.40562,-2.44968 0.70972,-3.65188c0.79771,-3.15355 1.71711,-6.28059 2.35331,-9.47065c0.60009,-2.961 0.95056,-5.99099 0.96431,-9.01216c0.00208,-0.45745 0.40034,-1.14058 0.00594,-1.37235c-0.4624,-0.27173 -1.00235,0.49403 -1.53822,0.47189c-1.60656,-0.06635 -3.64143,0.41508 -4.76787,-0.73234c-1.14993,-1.17135 -0.61843,-3.23216 -0.73175,-4.86971c-0.32213,-4.65477 0.65105,-9.28878 0.99963,-13.89796c0.14615,-1.9325 -0.51962,-4.28831 0.73223,-5.76777c0.74803,-0.88403 6.27461,-0.73223 7.76777,-0.73223c7,0 14,0 21,0c0,0 0.20725,0 0.5024,0.05967z" fill="#250024" stroke="none" stroke-width="0.5" stroke-linecap="butt"/><g data-paper-data="{&quot;index&quot;:null}" fill="#fcb3ff" stroke="none" stroke-width="0" stroke-linecap="butt"><path d="M481.51502,19.37838c30.09952,0 54.5,4.2533 54.5,9.5c0,5.2467 -24.40048,9.5 -54.5,9.5c-30.09952,0 -54.5,-4.2533 -54.5,-9.5c0,-5.2467 24.40048,-9.5 54.5,-9.5z" data-paper-data="{&quot;index&quot;:null}"/><path d="M412.51502,44.37838c31.20409,0 56.5,4.47716 56.5,10c0,5.52284 -25.29591,10 -56.5,10c-31.20409,0 -56.5,-4.47716 -56.5,-10c0,-5.52284 25.29591,-10 56.5,-10z" data-paper-data="{&quot;index&quot;:null}"/><path d="M339.01502,19.37838c28.7188,0 52,4.2533 52,9.5c0,5.2467 -23.2812,9.5 -52,9.5c-28.7188,0 -52,-4.2533 -52,-9.5c0,-5.2467 23.2812,-9.5 52,-9.5z" data-paper-data="{&quot;index&quot;:null}"/></g><path d="M246.49549,42c24.02439,0 43.5,4.02944 43.5,9c0,4.97056 -19.47561,9 -43.5,9c-24.02439,0 -43.5,-4.02944 -43.5,-9c0,-4.97056 19.47561,-9 43.5,-9z" fill="#fcb3ff" stroke="none" stroke-width="0" stroke-linecap="butt"/><path d="M299.99549,114l-73,42" fill="none" stroke="#a20082" stroke-width="1.5" stroke-linecap="round"/><path d="M291.99549,191l31,-50" fill="none" stroke="#a20082" stroke-width="1.5" stroke-linecap="round"/><path d="M460.99549,186l-39,-49" fill="none" stroke="#a20082" stroke-width="1.5" stroke-linecap="round"/><path d="M380.7455,164.5l26.75,41.25" fill="none" stroke="#a20082" stroke-width="1.5" stroke-linecap="round"/><path d="M398.3705,217.75v-17h17v17z" fill="#a20082" stroke="#a20082" stroke-width="1.5" stroke-linecap="butt"/><path d="M448.8705,196.75v-17.5h23v17.5z" fill="#a20082" stroke="#a20082" stroke-width="1.5" stroke-linecap="butt"/><path d="M277.8705,204.25v-21h29v21z" fill="#a20082" stroke="#a20082" stroke-width="1.5" stroke-linecap="butt"/><path d="M219.87049,165.75v-20.5h17v20.5z" fill="#a20082" stroke="#a20082" stroke-width="1.5" stroke-linecap="butt"/><path d="M153.49099,156.25v-34h48v34z" fill="#a20082" stroke="#a20082" stroke-width="3" stroke-linecap="butt"/><path d="M118.49099,97.25v-29h43v29z" fill="#a20082" stroke="#a20082" stroke-width="3" stroke-linecap="butt"/><path d="M41.49099,99.25v-31h41v31z" fill="#a20082" stroke="#a20082" stroke-width="3" stroke-linecap="butt"/><path d="M361.49099,373.25l-21,-138l-17,-6l16,-9l-1,-12l10,7l20,-10l-7,18l55,145z" fill="#7a0062" stroke="#7a0062" stroke-width="3" stroke-linecap="round"/><path d="M351.49099,234.25l-21,121l-10,-1l23,-114l-116,90l-11,-8l126,-92z" fill="#7a0062" stroke="#7a0062" stroke-width="3" stroke-linecap="round"/><path d="M329.49099,370.25l-135,-21l12,-50l139,50z" fill="#7a0062" stroke="#7a0062" stroke-width="3" stroke-linecap="round"/><path d="M133.49099,366.25l-17,-131l18,-20l22,150z" fill="#7a0062" stroke="#7a0062" stroke-width="3" stroke-linecap="round"/><path d="M-1.50901,365.25l17,-149l14,16l-4,133z" fill="#7a0062" stroke="#7a0062" stroke-width="3" stroke-linecap="round"/><path d="M136.49099,253.25l-43,109" fill="none" stroke="#7a0062" stroke-width="3" stroke-linecap="round"/><path d="M23.49099,270.25l31,92" fill="none" stroke="#7a0062" stroke-width="3" stroke-linecap="round"/></g></g></svg>