<svg version="1.1" xmlns="http://www.w3.org/2000/svg" xmlns:xlink="http://www.w3.org/1999/xlink" width="305.38646" height="280.96263" viewBox="0,0,305.38646,280.96263"><g transform="translate(-88.84795,-26.46954)"><g data-paper-data="{&quot;isPaintingLayer&quot;:true}" fill-rule="nonzero" stroke="none" stroke-width="0.5" stroke-linecap="butt" stroke-linejoin="miter" stroke-miterlimit="10" stroke-dasharray="" stroke-dashoffset="0" style="mix-blend-mode: normal"><path d="M226.75233,248.56372c-6.20756,12.20821 -11.4858,24.79556 -16.93063,37.36055c-2.38738,5.49602 -5.97379,10.52638 -8.9259,15.73835c-0.52875,0.93353 -2.61677,5.78298 -3.75575,5.76951c-0.98249,-0.01162 -2.317,-3.36832 -2.67991,-4.172c-1.92057,-4.25314 -3.83985,-8.50686 -5.75977,-12.76029c-1.0971,-2.43053 -2.1942,-4.86106 -3.2913,-7.29159c-0.4133,-0.91564 -0.10321,-2.48265 -1.04733,-2.82593c-0.44012,-0.16003 -8.37945,-2.6701 -8.83563,-2.56423c-1.93167,0.44833 -11.46085,-0.83332 -13.41677,-0.50411c-7.23161,1.2172 -6.96322,1.9344 -14.19483,3.15161c-4.60194,0.77459 -1.70387,6.54916 -6.3058,7.32375c-2.15695,0.36305 -5.17186,1.46735 -7.34386,1.20838c-1.92498,-0.22952 -4.10304,-1.24937 -5.95839,-1.82726c-4.45554,-1.38779 -8.91107,-2.77558 -13.36661,-4.16337c-2.54602,-0.79302 -5.09205,-1.58605 -7.63807,-2.37907c-0.51958,-0.16183 -3.9983,-1.20159 -4.23233,-1.48154c-0.88057,-1.05336 -0.85445,-5.05389 -1.04751,-6.45357c-0.9884,-7.16591 -0.68955,-13.98758 -0.68955,-21.19291c0,-3.5 0,-7 0,-10.5c0,-1.50389 0.22933,-4.17527 -1.18235,-5.26898c-2.4951,-1.9331 -6.22967,-1.78259 -9.0403,-2.75751c-0.77997,-0.27055 -1.96584,-0.32741 -2.21114,-1.11568c-0.27714,-0.89058 0.65522,-1.74912 1.05782,-2.59046c1.19407,-2.49534 3.46862,-4.26534 5.39319,-6.19214c1.79491,-1.79699 3.69297,-4.4067 5.81468,-5.79094c1.58132,-1.03169 4.01171,-1.57987 5.77824,-2.26538c5.27921,-2.04863 10.88324,-3.86928 15.94198,-6.41302c2.88042,-1.44839 4.95407,-3.67748 8.07004,-4.64489c5.98422,-1.82128 11.518,-3.49216 17.84731,-3.45873c4.34882,0.02296 9.43433,0.20252 13.70554,1.01316c3.1693,0.60151 5.92067,1.4793 9.21284,1.48706c3.7376,-0.62611 7.74137,-1.04339 11.13772,-2.8828c1.05974,-0.57394 1.93657,-1.45458 3.00886,-2.00472c0.1839,-0.09435 3.0292,-1.17511 3.39381,-1.43542c1.48327,-1.05894 2.51634,-2.80195 3.93775,-3.9529c0.73022,-0.59127 1.77453,-0.75755 2.42688,-1.43377c1.11223,-1.15292 2.38036,-2.85375 4.43686,-2.26614c1.38467,0.39563 2.62008,1.39301 3.77056,2.19848c3.43847,2.41421 6.84382,4.86946 10.12437,7.49391c2.46251,1.97001 4.96925,4.47585 7.81466,5.88255c3.72723,1.84266 9.25261,2.41131 13.34256,3.44355c3.73351,1.80189 11.70113,4.95723 9.11251,10.40198l0.10557,0.05279c0,0 0,1 -1,1c-0.21038,0 -0.37651,-0.04426 -0.50768,-0.11416c-5.9309,9.47543 -10.99481,19.19202 -16.07236,29.17788z" data-paper-data="{&quot;index&quot;:null}" fill="#b30042"/><path d="M174.30204,267.46967l0.69492,-0.64049c4.27913,-2.0879 6.3061,-8.47106 5.11263,-13.12898c-0.28513,-1.11281 -1.55645,-2.5412 -2.14859,-3.52809c-1.22114,-2.20809 -0.36071,-3.5237 0.33067,-5.84981c0.47568,-1.60039 0.80718,-4.71591 1.84343,-6.00708c0.75847,-0.94505 3.07907,-1.77417 4.15439,-2.37158c3.05558,-1.69754 6.11116,-3.39509 9.16674,-5.09264c0.08108,-0.0471 0.17181,-0.07944 0.26849,-0.09333c0.21981,-0.04058 0.53442,-0.01475 0.75186,0.35806c0.0086,0.01437 0.01672,0.02906 0.02435,0.04404c0.19939,0.38089 0.05401,0.66093 -0.09659,0.82538c-0.06142,0.07234 -0.13633,0.13289 -0.22084,0.17774c-3.05518,1.69732 -6.11037,3.39465 -9.16555,5.09198c-0.8833,0.49072 -3.09094,1.22409 -3.71302,1.99921c-0.62208,0.77512 -0.86019,3.08916 -1.14808,4.05775c-0.57135,1.92228 -2.05873,4.38498 -0.90961,6.08855c0.66851,1.11418 1.97962,2.64406 2.30792,3.89943c0.68696,2.62685 0.08079,9.27453 -1.59508,11.57048c-0.80578,1.10393 -3.09614,2.69072 -4.2923,3.30054l-0.30508,0.35951c0,0 -0.53033,0.53033 -1.06066,0c-0.53033,-0.53033 0,-1.06066 0,-1.06066z" data-paper-data="{&quot;index&quot;:null}" fill="#73002a"/><path d="M110.78445,233.75h-0.95209c-0.41422,0 -0.75,-0.33578 -0.75,-0.75c0,-0.41422 0.33578,-0.75 0.75,-0.75h1c0,0 0.0228,0 0.06044,0.00397l0.0031,-0.00128c0.01351,0.0023 0.02699,0.0046 0.04045,0.00691c0.01144,0.00175 0.02361,0.00381 0.03638,0.00625c3.12437,0.53866 5.14717,1.26132 8.33344,0.47794c5.90341,-1.44751 12.22617,-4.22482 17.68585,-6.91214c3.38367,-1.66548 5.50663,-5.08759 8.51279,-7.22803c7.351,-5.2133 18.15477,-5.59462 26.56472,-2.81515c0,0 0.71151,0.23717 0.47434,0.94868c-0.23717,0.71151 -0.94868,0.47434 -0.94868,0.47434c-7.92903,-2.66799 -18.28632,-2.30355 -25.22265,2.61567c-3.09114,2.18267 -5.22928,5.60907 -8.69985,7.34116c-5.53214,2.76097 -12.01441,5.56237 -18.0093,7.03231c-3.37955,0.82653 -5.56094,0.12233 -8.87894,-0.45065z" data-paper-data="{&quot;index&quot;:null}" fill="#73002a"/><path d="M121.80297,274.25058l0.1257,0.11632c2.91129,-2.05365 5.52118,-3.66998 7.58993,-6.69104c3.11463,-4.53548 6.04884,-9.13382 8.91866,-13.8278c1.81126,-2.96256 3.41537,-6.41275 5.86478,-8.87838c0,0 0.53033,-0.53033 1.06066,0c0.53033,0.53033 0,1.06066 0,1.06066c-2.36764,2.35012 -3.90675,5.75591 -5.64567,8.60016c-2.88356,4.71645 -5.83235,9.33729 -8.96192,13.89451c-2.18131,3.16799 -4.90589,4.90047 -7.96032,7.06658l-0.93302,0.15785c0,0 -0.74942,0.0294 -0.77882,-0.72002c-0.0294,-0.74942 0.72002,-0.77882 0.72002,-0.77882z" data-paper-data="{&quot;index&quot;:null}" fill="#73002a"/><path d="M237.1417,157.67554c0.35658,-0.50327 1.03814,-0.50328 1.03814,-0.50328h1c3.95515,0.03755 9.3221,2.14072 12.65716,4.18669c2.01159,1.23406 2.49597,2.12485 4.89203,2.94042c2.11394,1.39538 4.51496,1.8176 6.60798,3.05958c1.75059,1.03878 3.2595,2.9636 5,4c3.92368,2.33641 8.82431,3.5658 13.05346,5.41607c2.30685,1.00925 7.59567,2.31719 8.51554,4.90434c0.45065,1.26743 -2.32534,3.60605 -2.84229,4.12679c-5.87764,5.83131 -12.72688,10.65674 -19.80375,14.72334c-3.80987,2.18928 -6.99805,5.15351 -11.18485,6.57863c-2.80663,0.90738 -5.39578,1.40398 -8.24496,2.67065c-2.82203,1.2546 -5.40402,4.3976 -8.4501,4.87735c-2.35878,0.37151 -2.84762,-1.17198 -4.90046,-1.5c-4.49599,-0.7184 -9.89874,-4.23597 -13.98414,-6.68785c-7.12446,-5.0841 -15.15947,-9.82086 -23.13858,-13.80994c-1.93127,-0.96552 -6.3858,-2.00528 -5.29508,-5.29508c0.23111,-0.69706 1.35254,-0.59292 1.96087,-1.00429c2.56346,-1.73352 4.82041,-4.15023 7.29952,-6.08594c3.36694,-2.44994 6.7199,-5.06662 10.16497,-7.39128c3.31787,-2.23882 7.19307,-3.65294 10.46178,-5.97352c4.69016,-3.32972 9.26121,-7.28957 14.8356,-9.1718c0,0 0.14813,-0.04938 0.35715,-0.06087z" fill="#b30042"/><path d="M240.30042,162.83834l1.26331,0.70004c1.01771,1.01771 2.54809,3.25877 3.97835,3.68751c1.81954,0.54543 2.9695,0.91166 4.68696,2.07348c3.37068,1.173 5.37387,4.77319 8.81304,5.92652c1.41847,0.47569 3.45194,0.54917 4.98726,0.99622c3.2901,0.95799 6.10852,2.51647 9.1997,4.07726c1.21834,0.61516 2.58711,0.87088 3.95081,1.12853v-0.25564h1.5c0.69036,0 1.25,0.55964 1.25,1.25c0,0.44076 -0.22813,0.82825 -0.57275,1.05082l-1.48387,0.98925c-5.99889,3.95076 -13.27083,6.39182 -20.34389,8.16008c-4.79533,1.60164 -9.2836,3.91555 -13.98726,5.49622c-0.43746,0.14701 -0.95492,-0.21174 -1.38388,-0.04152c-1.24377,0.49355 -2.35973,1.70495 -3.69169,1.57681c-0.69579,-0.06694 -1.14816,-0.81719 -1.79235,-1.08851c-2.23272,-0.9404 -4.36869,-1.38074 -6.5435,-2.52025c-1.76863,-0.92669 -4.61683,-0.87521 -6.60354,-1.38226c-5.20316,0.03617 -10.43534,-2.97206 -15.24256,-4.55478c-1.08277,-0.35649 -5.00135,-1.24346 -5.32127,-2.39866c-0.21451,-0.77455 1.72805,-2.56893 2.33267,-3.17108c2.2582,-2.24891 5.52503,-3.42398 7.5914,-5.5828c3.3447,-2.2298 6.66565,-3.36309 10.24329,-5.15622c1.22729,-0.61513 3.19778,-1.79018 4.16531,-2.76099c0.47278,-0.47439 0.60854,-1.26342 1.16383,-1.63789c0.60219,-0.4061 1.44946,-0.25153 2.10419,-0.56598c0.80983,-0.38893 1.14027,-1.42381 1.88499,-1.9263c2.27141,-1.53259 3.88055,-2.40338 5.847,-4.36983c0,0 0.88388,-0.88389 1.76777,0c0.10042,0.10042 0.17802,0.20084 0.23669,0.29996z" fill="#120007"/><path d="M249.73813,122.10977c0,0 -6.12252,1.6907 -7.5352,3.09643c-3.31441,1.12658 -5.50222,-0.22898 -8.71644,-0.75504c-3.56902,-0.58413 -7.58842,-0.96392 -11.10351,-1.806c-2.6032,-0.62364 -15.52019,-7.66746 -18.52472,-9.17897c-5.33985,-2.69109 -9.69885,-2.63589 -14.57895,-6.1226c-1.67071,-1.19367 -18.56045,-12.4163 -13.65351,-15.27432c0.64916,-0.3781 5.51801,-0.69845 6.24464,-0.88913c3.08577,-0.00989 6.65866,0.53644 9.68679,0.02982c2.36387,-0.39549 4.7178,-1.4542 7.07985,-1.75147c2.41392,-0.3038 4.92474,0.28134 7.34157,-0.04157c3.03455,-0.40544 6.02331,-1.57324 8.97477,-2.35893c1.47558,-2.26746 0.10387,-6.3322 0.48033,-8.98418c0.50359,-3.54755 0.83416,-7.08604 1.35276,-10.60999c0.36543,-2.48309 1.54432,-4.49592 2.26483,-6.80579c0.51814,-1.66108 0.28489,-3.47303 0.86617,-5.1685c0.03037,-2.27284 1.34785,-4.19869 2.3962,-6.18754c2.92635,-5.55166 7.09864,-10.31582 10.66094,-15.45507c1.45455,-2.09845 3.30601,-6.21895 5.98184,-7.06939c1.55032,-0.49273 5.10144,2.27301 6.39308,3.01479c4.10105,2.35984 8.61695,4.38749 13.04035,6.06677c2.64493,1.00412 6.21498,1.86555 8.48108,3.60306c0.42735,0.32767 0.49163,0.98945 0.89765,1.3432c1.8607,1.62112 5.08833,2.71964 7.24029,4.05196c2.72113,1.68471 5.52681,3.02504 7.82123,5.31788c0.03378,0.18696 -0.08867,0.56041 0.10132,0.56088c0.18998,0.00047 -0.00205,-0.4028 0.10407,-0.56038c0.49238,-0.7311 1.13865,-1.34817 1.6532,-2.06383c1.35739,-1.88795 2.99947,-3.58892 4.48293,-5.358c3.10984,-3.7086 6.43695,-6.86205 9.82726,-10.22776c1.70707,-1.69467 2.78487,-3.00755 4.34272,-4.16463l-0.2184,-0.27438l1.72308,-1.37153c0.19064,-0.15443 0.43365,-0.24669 0.69812,-0.24604c0.61058,0.0015 1.10432,0.49769 1.10282,1.10826c-0.0004,0.16406 -0.03651,0.31968 -0.10097,0.45951l-0.70036,1.61497c-1.88901,4.33558 -2.68266,9.16868 -4.29281,13.63703c-1.90783,5.29449 -4.0488,10.44028 -5.7791,15.805c-2.22996,3.31659 -3.94523,6.94643 -6.28115,10.1801c-1.01937,1.41112 -1.89632,3.05268 -3.78537,3.5653c-0.19352,0.05252 -3.11235,-0.85678 -3.39176,-1.03313c-1.15513,-0.72907 -1.97206,-1.91186 -3.10704,-2.67191c-2.1595,-1.44615 -4.84794,-2.15733 -7.07603,-3.56096c-1.78918,-1.12714 -4.73182,-4.90744 -4.95064,-1.18684c-0.83396,6.41213 -4.00456,12.81811 -4.01036,19.24611c-0.00056,0.62294 -0.21316,5.88885 0.62929,6.05569c4.46069,0.88343 9.48015,0.37856 14.09581,0.39519c2.69996,-0.35895 5.22763,-1.35802 7.87718,-1.74024c3.32459,-0.4796 7.2722,-0.09672 10.50756,0.47063c1.71112,0.30006 3.59277,-0.31311 5.30663,0.01305c1.80902,0.34428 6.67015,2.92322 6.66483,5.08767c-0.00391,1.58786 -1.50609,2.29949 -2.54226,2.9866c-3.14606,4.73055 -9.24036,7.54337 -13.93472,10.29551c-1.61474,0.94666 -9.15573,4.11063 -10.45282,4.75675c-0.66516,0.33134 -7.45636,2.83672 -8.74883,3.36044c-1.27585,0.49457 -6.45372,1.62242 -8.88213,2.52349c-2.5664,0.95227 -5.91388,1.80784 -8.61421,2.24431c-2.74595,0.44384 -5.33992,2.02771 -5.33992,2.02771z" fill="#b30042"/><path d="M264.94322,90.19292c-0.00158,0.05254 -0.00629,0.10756 -0.01446,0.16518c-0.15517,1.09461 -1.24979,0.93944 -1.24979,0.93944l-0.08374,-0.06917c-6.90163,1.2625 -13.57746,1.25902 -20.4915,0.27887c-2.00421,-0.30956 -4.09639,0.0838 -6.14532,0.01668c-5.92736,-0.19417 -11.92284,-1.13057 -17.71207,-2.50927c-0.70123,-0.167 -3.46243,-0.35483 -3.91112,-0.68276c-1.96238,-1.43426 -1.2837,-4.55658 -1.00998,-6.48736c0.32589,-2.29883 0.05372,-6.59583 2.58372,-7.76447c1.38237,-0.63854 4.10928,0.72336 5.61163,0.67781c3.68028,-0.11157 7.24248,-0.50923 10.99111,-0.24225c3.67478,0.26172 7.25995,0.90299 10.95829,1.0534c4.79334,0.17555 9.75674,0.4988 14.53376,0.00828c1.48788,-0.15279 4.27916,-0.71973 5.48199,0.66587c0.47295,0.54482 -0.39572,1.38872 -0.54716,2.09411c-0.17327,0.80703 -0.21756,1.63647 -0.33343,2.45372c-0.47557,3.3547 -0.38342,5.45389 1.25985,8.44147c0,0 0.26782,0.48713 0.0782,0.96046z" fill="#370014"/><path d="M202.25523,98.25323c2.29113,0.36356 4.35647,1.37466 6.62767,1.91388c4.65518,1.10522 8.89398,1.17701 13.56291,1.51704c3.87099,0.28192 7.47603,1.49145 11.44338,1.04808c9.85688,-1.08787 19.09318,-3.7519 29.08671,-3.06768c2.59394,-0.02563 5.18792,-0.49314 7.7215,-0.56249c4.20718,-0.11515 8.52946,0.84518 12.772,0.32497c2.05144,-0.25155 3.76802,-0.67668 5.66063,-0.70991l-0.01924,-0.21652l1.47668,-0.13125c0.0837,-0.00942 0.17042,-0.00478 0.25708,0.01579c0.40301,0.09568 0.65215,0.49996 0.55647,0.90296c-0.04784,0.20151 -0.17283,0.36455 -0.33623,0.46524l-0.80264,0.49464c-3.07133,1.87758 -6.26424,3.02557 -9.33961,4.92082c-1.71892,1.5731 -3.86373,2.19903 -6.00699,2.85204c-1.08929,0.33188 -2.08016,1.44766 -3.11814,1.9409c-2.84812,1.35334 -5.74404,2.48476 -8.58532,3.88021c-1.494,0.73375 -3.02548,0.48723 -4.38187,1.32313c-1.90504,0.16932 -3.50079,1.5859 -5.31045,2.16519c-4.63816,1.48473 -9.39051,2.50496 -13.88546,4.44558c-0.12433,0.08588 -0.26423,0.11535 -0.37955,0.12203c-0.11484,0.01379 -0.25798,0.00941 -0.39567,-0.05342l-0.49252,-0.11693c-1.66057,-0.39425 -3.32231,-0.78357 -4.97943,-1.19216c-2.83044,-1.75431 -6.31473,-2.91787 -9.23892,-4.60235c-1.70352,-0.98131 -4.27719,-0.66921 -6.10681,-1.43802c-2.42263,-1.01799 -4.20612,-2.59478 -6.36101,-3.93039c-6.85241,-3.55074 -14.79231,-7.14952 -20.53496,-12.38181l-1.24918,-0.29658c-0.40301,-0.09568 -0.65215,-0.49996 -0.55647,-0.90296c0.09568,-0.40301 0.49996,-0.65215 0.90296,-0.55647l0.97295,0.231c3.67173,0.87173 7.32657,1.00625 11.03951,1.59543z" fill="#120007"/><path d="M240.66434,177.20501c0.16761,0.42485 0.21046,0.99203 -0.17781,1.65778c-0.87421,1.49894 -2.18551,0.49965 -2.18551,0.49965l-2.26944,-1.84665c-0.19574,-0.6021 -0.39148,-1.20421 -0.58721,-1.80631l0.23171,-0.09422c2.01204,-0.3928 3.99522,-0.92852 5.96677,-1.49031c0,0 3.12495,-0.89284 2.23211,-4.0178c-0.89284,-3.12495 -4.0178,-2.23211 -4.0178,-2.23211c-1.99289,0.57103 -4.00206,1.09492 -6.03323,1.50969l-1.79964,0.71037c-0.84102,-0.67452 -1.77836,-1.35666 -2.78901,-2.48739c-3.98973,-4.46378 -8.71734,-7.78704 -12.60793,-12.25023c-0.65996,-0.75709 -1.39623,-1.44693 -2.14702,-2.12911l0.1569,-0.00152c6.31911,-0.75829 12.31685,-1.42354 18.46791,-3.09137c0,0 3.13548,-0.85513 2.28035,-3.99061c-0.85513,-3.13548 -3.99061,-2.28035 -3.99061,-2.28035c-5.83483,1.60137 -11.53088,2.18849 -17.53209,2.90863l-1.61278,-0.02315c0,0 -1.52837,0 -2.48892,1.0481c-0.14392,-0.29171 -0.27614,-0.59527 -0.39498,-0.91229c-1.01042,-2.69536 -0.7682,-5.40085 -0.74476,-8.2234c0.44241,-1.51713 0.19952,-3.24469 0.73001,-4.72446c0.0726,-0.20252 0.14851,-0.40209 0.22762,-0.59874c0.94811,0.49127 1.96954,0.39705 1.96954,0.39705l1.2652,-0.14632c4.22236,-0.97439 8.44472,-1.94878 12.66709,-2.92317c0,0 3.16677,-0.73079 2.43598,-3.89756c-0.73079,-3.16677 -3.89756,-2.43598 -3.89756,-2.43598c-3.00071,0.69247 -6.00142,1.38494 -9.00213,2.07741c3.9949,-2.85692 9.14664,-3.79302 13.69386,-2.92936c2.26034,0.4293 6.18372,1.77929 8.14085,3.1282c0.051,0.03515 2.8416,3.62681 3.22213,3.38214c0.54067,-0.3476 0.75925,-1.12156 1.13889,-1.68235c2.82585,-3.23022 5.57544,-6.95841 9.48325,-8.37698c5.35231,-1.94294 12.77302,0.43931 16.73804,5.52545c-3.96069,1.30976 -7.76056,2.70502 -11.63754,4.63537l-1.0743,0.32367c0,0 -3.08322,1.02774 -2.05548,4.11096c1.02774,3.08322 4.11096,2.05548 4.11096,2.05548l1.9257,-0.67633c3.76894,-1.89315 7.45717,-3.20912 11.3226,-4.46598c0.52304,3.96082 -0.63925,9.0461 -1.61825,12.40335c-0.96929,3.31731 -1.72513,6.75117 -3.30648,9.74525c-0.0401,0.07593 -0.0805,0.15143 -0.12119,0.2265c-0.82088,-0.14334 -1.51836,0.03104 -1.51836,0.03104c-3.00656,0.75536 -6.03756,1.49148 -8.91878,2.63541l-1.32072,0.43433c0,0 -3.08322,1.02774 -2.05548,4.11096c1.02774,3.08322 4.11096,2.05548 4.11096,2.05548l1.67928,-0.56567c0.19998,-0.08069 0.40086,-0.15895 0.60256,-0.23497c-2.21695,1.75103 -4.58506,3.29169 -6.91377,4.91613c-3.8665,2.69715 -6.62669,6.20609 -9.7258,9.77681c0,0 -0.09438,0.10789 -0.25568,0.22946zM246.25,148.25c0.83333,0 2.16667,0 3,0c0,0 3.25,0 3.25,-3.25c0,-3.25 -3.25,-3.25 -3.25,-3.25c-0.83333,0 -2.16667,0 -3,0c0,0 -3.25,0 -3.25,3.25c0,3.25 3.25,3.25 3.25,3.25z" fill="#ff88b6"/><path d="M232.36944,69.51254c-0.09115,-0.05655 -0.17957,-0.14293 -0.2582,-0.27053c-0.39348,-0.63849 0.24501,-1.03197 0.24501,-1.03197l1.16871,-0.4622c3.88582,1.02264 8.40466,-0.30733 12.46294,0.08359c1.74102,-0.24239 4.64685,-1.52608 6.08904,0.08842c1.59194,1.78215 0.8969,5.08521 1.29317,7.21783c0.70705,3.80509 1.35212,7.79032 1.68551,11.65927c0.15178,1.76141 -0.20496,3.53939 0.18497,5.20065c-0.35499,1.49523 0.36243,3.06768 -1.17312,4.04781c-0.55288,0.3529 -2.51342,0.45715 -3.14399,0.51346c-4.06945,0.36341 -8.035,-0.93327 -12.01664,-0.83791c-1.66926,0.03998 -4.97114,2.47027 -6.46585,0.2968c-0.01773,-0.02577 0.2676,-3.12081 0.29655,-3.43929c0.11123,-0.66619 0.58317,-12.58297 0.70657,-14.71243c0.08242,-1.42227 -0.42674,-2.77797 -0.53281,-4.15962c-0.13305,-1.733 0.55904,-2.36237 -0.42906,-3.86245c0,0 -0.08694,-0.14107 -0.11278,-0.33145zM239.66879,77.07945c-1.24509,0.11066 -1.13443,1.35576 -1.13443,1.35576c0.16521,1.83742 0.64136,3.70167 0.72063,5.53325c0.04268,0.98614 -0.74019,2.42488 -0.16736,3.31766c0.42179,0.65738 1.34948,0.83667 2.10791,1.02334c1.41414,0.34805 6.54873,0.10754 7.79254,-0.66766c0.67353,-0.41977 1.194,-1.13015 1.46674,-1.87545c0.66582,-1.81943 -0.48833,-6.30731 -1.14087,-7.98911c-2.73641,-1.46571 -4.95596,-1.2926 -7.95124,-1.02977l-0.89996,0.07999c0,0 -0.34917,0.03103 -0.66126,0.24515c-0.04274,0.00053 -0.08695,0.00277 -0.1327,0.00683z" fill="#ffdb00"/><path d="M240.25768,218.88584c-0.13117,0.0699 -0.29729,0.11416 -0.50768,0.11416c-1,0 -1,-1 -1,-1l0.10557,-0.05279c-2.58862,-5.44475 5.379,-8.60009 9.11252,-10.40198c4.08995,-1.03224 9.61533,-1.6009 13.34256,-3.44355c2.84541,-1.4067 5.35214,-3.91254 7.81466,-5.88255c3.28056,-2.62445 6.6859,-5.0797 10.12438,-7.49391c1.15048,-0.80547 2.3859,-1.80284 3.77057,-2.19847c2.0565,-0.5876 3.32464,1.11322 4.43686,2.26614c0.65235,0.67622 1.69666,0.84249 2.42688,1.43376c1.42141,1.15095 2.45449,2.89397 3.93775,3.95291c0.36462,0.26031 3.20991,1.34107 3.39381,1.43541c1.07229,0.55014 1.94912,1.43078 3.00886,2.00472c3.39635,1.83941 7.40012,2.25668 11.13772,2.8828c3.29217,-0.00776 6.04353,-0.88555 9.21284,-1.48706c4.27122,-0.81064 9.35673,-0.9902 13.70554,-1.01316c6.32931,-0.03342 11.86308,1.63745 17.8473,3.45873c3.11598,0.96741 5.18963,3.19651 8.07004,4.64489c5.05874,2.54373 10.66278,4.36438 15.94199,6.41302c1.76653,0.68551 4.19691,1.2337 5.77824,2.26538c2.12171,1.38424 4.01978,3.99395 5.81469,5.79094c1.92458,1.9268 4.19913,3.6968 5.39319,6.19214c0.4026,0.84134 1.33496,1.69988 1.05782,2.59046c-0.2453,0.78827 -1.43118,0.84513 -2.21114,1.11568c-2.81062,0.97492 -6.54519,0.82441 -9.0403,2.75751c-1.41167,1.0937 -1.18235,3.76508 -1.18235,5.26897c0,3.5 0,7 0,10.5c0,7.20533 0.29885,14.02701 -0.68955,21.19291c-0.19306,1.39968 -0.16694,5.40021 -1.04751,6.45356c-0.23403,0.27995 -3.71275,1.3197 -4.23233,1.48154c-2.54602,0.79302 -5.09204,1.58605 -7.63806,2.37907c-4.45554,1.38779 -8.91108,2.77558 -13.36661,4.16337c-1.85534,0.57789 -4.0334,1.59774 -5.95838,1.82726c-2.172,0.25898 -5.18692,-0.84533 -7.34386,-1.20838c-4.60193,-0.77458 -1.70387,-6.54917 -6.3058,-7.32375c-7.23161,-1.2172 -6.96322,-1.9344 -14.19483,-3.15161c-1.95592,-0.32921 -11.4851,0.95243 -13.41677,0.50411c-0.45618,-0.10588 -8.39551,2.4042 -8.83563,2.56423c-0.94412,0.34328 -0.63403,1.9103 -1.04733,2.82593c-1.0971,2.43053 -2.1942,4.86106 -3.2913,7.29159c-1.91992,4.25343 -3.8392,8.50716 -5.75977,12.76029c-0.36292,0.80368 -1.69742,4.16038 -2.67991,4.172c-1.13898,0.01347 -3.227,-4.83599 -3.75575,-5.76951c-2.95211,-5.21198 -6.53853,-10.24234 -8.92591,-15.73835c-5.44483,-12.56499 -10.72306,-25.15235 -16.93063,-37.36056c-5.07755,-9.98585 -10.14146,-19.70245 -16.07237,-29.17788z" fill="#b30042"/><path d="M308.78033,268.03033c-0.53033,0.53033 -1.06066,0 -1.06066,0l-0.30508,-0.35951c-1.19615,-0.60982 -3.48652,-2.19661 -4.2923,-3.30054c-1.67587,-2.29596 -2.28204,-8.94363 -1.59508,-11.57048c0.3283,-1.25537 1.63941,-2.78525 2.30792,-3.89943c1.14912,-1.70356 -0.33827,-4.16627 -0.90962,-6.08854c-0.28789,-0.96858 -0.526,-3.28263 -1.14808,-4.05774c-0.62208,-0.77512 -2.82972,-1.50849 -3.71302,-1.99921c-3.05519,-1.69733 -6.11037,-3.39465 -9.16556,-5.09198c-0.0845,-0.04486 -0.15941,-0.1054 -0.22083,-0.17774c-0.15061,-0.16445 -0.29598,-0.44449 -0.0966,-0.82538c0.00764,-0.01498 0.01576,-0.02966 0.02435,-0.04404c0.21744,-0.37281 0.53205,-0.39864 0.75187,-0.35806c0.09668,0.0139 0.1874,0.04623 0.26849,0.09333c3.05558,1.69754 6.11116,3.39509 9.16674,5.09263c1.07533,0.5974 3.39593,1.42652 4.15439,2.37158c1.03625,1.29117 1.36776,4.4067 1.84343,6.00709c0.69138,2.32612 1.5518,3.64172 0.33066,5.84981c-0.59214,0.9869 -1.86346,2.41528 -2.14859,3.52809c-1.19347,4.65792 0.83349,11.04107 5.11262,13.12898l0.69492,0.64049c0,0 0.53033,0.53033 0,1.06066z" fill="#73002a"/><path d="M363.41897,233.70065c-5.9949,-1.46994 -12.47716,-4.27134 -18.0093,-7.03232c-3.47057,-1.73209 -5.60871,-5.15849 -8.69985,-7.34116c-6.93634,-4.91922 -17.29362,-5.28365 -25.22265,-2.61566c0,0 -0.71151,0.23717 -0.94868,-0.47434c-0.23717,-0.71151 0.47434,-0.94868 0.47434,-0.94868c8.40994,-2.77947 19.21371,-2.39815 26.56472,2.81515c3.00615,2.14043 5.12911,5.56254 8.51279,7.22803c5.45969,2.68732 11.78244,5.46464 17.68585,6.91214c3.18627,0.78338 5.20908,0.06072 8.33344,-0.47794c0.01277,-0.00244 0.02493,-0.00451 0.03637,-0.00625c0.01346,-0.00231 0.02695,-0.00461 0.04045,-0.00692l0.0031,0.00128c0.03764,-0.00397 0.06044,-0.00397 0.06044,-0.00397h1c0.41421,0 0.75,0.33579 0.75,0.75c0,0.41421 -0.33579,0.75 -0.75,0.75l-0.95209,0c-3.318,0.57298 -5.49939,1.27718 -8.87895,0.45065z" fill="#73002a"/><path d="M361.99942,274.5294c-0.0294,0.74942 -0.77882,0.72002 -0.77882,0.72002l-0.93302,-0.15785c-3.05443,-2.16611 -5.77901,-3.89858 -7.96032,-7.06657c-3.12956,-4.55721 -6.07836,-9.17806 -8.96191,-13.89451c-1.73892,-2.84424 -3.27803,-6.25004 -5.64567,-8.60015c0,0 -0.53033,-0.53033 0,-1.06066c0.53033,-0.53033 1.06066,0 1.06066,0c2.44941,2.46564 4.05352,5.91583 5.86478,8.87839c2.86982,4.69398 5.80402,9.29232 8.91866,13.8278c2.06875,3.02106 4.67863,4.63738 7.58993,6.69104l0.12571,-0.11632c0,0 0.74942,0.0294 0.72002,0.77882z" fill="#73002a"/><path d="M199.75,152c0,-1.5 1.5,-1.5 1.5,-1.5l0.33769,0.00881c3.49896,-0.36808 6.57182,-1.00881 10.16231,-1.00881c0,0 1.5,0 1.5,1.5c0,1.5 -1.5,1.5 -1.5,1.5c-3.49213,0 -6.42802,0.6094 -9.83769,0.99119l-0.66231,0.00881c0,0 -1.5,0 -1.5,-1.5z" fill="#ff88b6"/><path d="M270.07569,156.52575c0.21619,-0.287 0.57587,-0.52575 1.17431,-0.52575c1.5,0 1.5,1.5 1.5,1.5l-1.5,2c-4.10226,0 -7.88255,1 -12,1c0,0 -1.5,0 -1.5,-1.5c0,-1.5 1.5,-1.5 1.5,-1.5c3.71139,0 7.15515,-0.81766 10.82569,-0.97425z" fill="#ff88b6"/><path d="M276.75,127.5c0,1.5 -1.5,1.5 -1.5,1.5l0.05709,-0.10728c-3.93733,1.56931 -8.32831,3.06022 -12.55709,3.10728c0,0 -1.5,0 -1.5,-1.5c0,-1.5 1.5,-1.5 1.5,-1.5c3.76455,0.05788 7.9537,-1.49165 11.44291,-2.89272l1.05709,-0.10728c0,0 1.5,0 1.5,1.5z" fill="#ff88b6"/><path d="M208.82698,129.97434c-0.47434,-1.42302 0.94868,-1.89737 0.94868,-1.89737l1.73407,-0.55761c3.74635,-0.0417 7.49371,-0.01937 11.24027,-0.01937c0,0 1.5,0 1.5,1.5c0,1.5 -1.5,1.5 -1.5,1.5c-3.58594,0 -7.17418,0.03576 -10.75973,-0.01937l-1.26593,0.44239c0,0 -1.42302,0.47434 -1.89737,-0.94868z" fill="#ff88b6"/><path d="M226.75,173.5c0,-1.5 1.5,-1.5 1.5,-1.5l0.6362,0.04479c2.49087,-0.60948 4.81216,-0.54479 7.3638,-0.54479c0,0 1.5,0 1.5,1.5c0,1.5 -1.5,1.5 -1.5,1.5c-2.29568,0 -4.40043,-0.11796 -6.6362,0.45521l-1.3638,0.04479c0,0 -1.5,0 -1.5,-1.5z" fill="#ff88b6"/></g></g></svg>