<svg version="1.1" xmlns="http://www.w3.org/2000/svg" xmlns:xlink="http://www.w3.org/1999/xlink" width="378.92097" height="151.25015" viewBox="0,0,378.92097,151.25015"><g transform="translate(-50.53953,-104.37492)"><g data-paper-data="{&quot;isPaintingLayer&quot;:true}" fill-rule="nonzero" stroke-linejoin="miter" stroke-miterlimit="10" stroke-dasharray="" stroke-dashoffset="0" style="mix-blend-mode: normal"><path d="M361.53953,183.62507l-26,53l-108,17l13,-13l-113,15l-59,-24l47,-41l-59,-6l64,-49l-42,-18l144,17l-6,-12l145,36z" fill="#0a0610" stroke="#400b50" stroke-width="0" stroke-linecap="round"/><path d="M359.53954,176.62507l-26.34098,53l-109.41639,17l13.17049,-13l-114.48197,15l-59.77377,-24l47.61639,-41l-59.77377,-6l64.83934,-49l-42.55082,-18l145.88852,17l-6.07869,-12l146.90164,36z" fill="#400b50" stroke="#400b50" stroke-width="0" stroke-linecap="round"/><path d="M388.73275,191.33239c0.01097,0.299 -0.02032,0.50274 -0.02032,0.50274l-0.19591,0.97181c-0.93383,2.487 -1.21267,4.50986 -4.07827,5.69268c-1.72464,0.71187 -6.06294,-0.3683 -7.97535,-0.46427c-3.88039,-0.19473 -7.99368,0.45307 -11.88274,0.66757c-3.52201,0.19426 -6.67393,-0.13411 -9.16727,2.85741c-0.20101,1.90012 -1.30537,4.67992 -1.02837,6.46087c0.08739,0.56187 0.59639,0.94566 0.86359,1.43833c0.74381,1.37147 0.92853,3.16616 2.04241,4.22339c0.44992,0.42704 1.2057,0.25023 1.7597,0.51228c2.88436,1.36437 5.57605,1.96699 8.70171,2.75775c1.63294,0.41312 3.23181,0.99676 4.89641,1.24922c2.28735,0.34691 4.81052,0.47396 7.0427,1.08161c1.32394,0.3604 3.09294,0.18324 3.89639,1.33922c0.80346,1.15598 0.11178,2.88314 0.03974,4.3239c-0.12529,2.50577 -0.79603,5.17667 -1.18731,7.65482c-0.63099,1.78593 -1.4844,3.48189 -2.32417,5.17317c-0.51979,1.04684 -0.55726,2.45875 -1.42901,3.20661c-3.49088,2.99479 -10.0318,0.88875 -13.90714,0.29358c-11.99451,-1.8421 -25.40907,-2.93439 -34.26359,-12.4569c-2.34544,-3.36236 -5.26786,-6.84159 -6.17816,-11.05307c-2.10122,-9.72124 1.45771,-20.95688 5.44966,-29.62997c0.87598,-1.9032 1.70907,-3.941 3.16233,-5.40881c3.53656,-3.57192 8.16948,-4.21329 12.69912,-5.33521c3.34218,-1.41922 7.0784,-1.84073 10.69519,-1.64375c1.974,0.10751 4.82713,0.99163 6.73136,0.78265c0.95867,-0.10521 0.82947,-1.85568 1.03922,-2.84536c0.36579,-1.72597 0.52772,-3.48952 0.79559,-5.23368c0.72442,-4.71696 0.29888,-9.16 0.69565,-13.87801c0.43079,-5.12241 1.70516,-9.91414 3.25544,-14.76516c1.45053,-4.53468 2.62959,-9.11113 3.52922,-13.79634c0.29415,-1.53195 1.16749,-8.37166 1.45241,-8.94162c0.93963,-1.87965 2.27787,-3.88942 4.16612,-4.64025c1.35381,-0.53832 6.64711,3.05934 8.07597,3.72208c2.57151,1.19273 5.4923,1.64906 8.11199,2.73178c2.58745,1.0694 4.79098,2.81432 7.45092,3.64164c1.47071,0.45743 3.04409,0.60814 4.4434,1.26189c3.2876,1.53596 6.64894,5.46443 8.73004,8.43192c2.71348,2.92268 6.19142,5.30267 9.37659,7.66475c1.2967,0.96161 4.66091,3.11818 5.11989,4.95262c0.354,1.41486 0.0021,3.01551 -0.54185,4.37707c-0.13707,0.34311 -3.41339,3.70457 -3.90796,4.19589c-2.51515,2.49864 -5.23174,6.11104 -8.13868,8.06452c-1.72934,1.16213 -3.43049,2.8843 -5.46896,2.96529c-1.78132,0.07077 -3.76151,-3.64381 -4.74677,-4.88723c-1.0627,-1.34116 -2.55672,-2.24259 -3.68925,-3.51892c-1.74586,-1.96755 -2.4566,-4.265 -4.2516,-6.14628c-0.52746,-0.64587 -1.68924,-2.75933 -1.61597,-1.90668c0.38311,4.45869 -1.04995,9.5267 -1.7365,13.99704c-0.64857,4.22303 -0.76037,9.26636 -2.08751,13.31013c-0.27947,0.85154 -1.06171,1.46777 -1.31852,2.32682c-0.81069,2.71185 -0.47057,5.69251 -1.29029,8.4015c-0.49348,1.63085 -1.42949,3.14121 -1.65979,4.83127c0,0 -0.03129,0.20373 -0.13148,0.48567z" fill="#311b79" stroke="none" stroke-width="0.5" stroke-linecap="butt"/><text transform="translate(108.79249,186.96699) rotate(-6.26713) scale(1.18432,1.18432)" font-size="40" xml:space="preserve" fill="#4c29bb" fill-rule="nonzero" stroke="none" stroke-width="1" stroke-linecap="butt" stroke-linejoin="miter" stroke-miterlimit="10" stroke-dasharray="" stroke-dashoffset="0" font-family="&quot;Microsoft YaHei&quot;, &quot;微软雅黑&quot;, STXihei, &quot;华文细黑&quot;" font-weight="normal" text-anchor="start" style="mix-blend-mode: normal"><tspan x="0" dy="0">CARLA</tspan><tspan x="0" dy="46.15px">PLAYLIST</tspan></text><text transform="translate(103.79249,181.96699) rotate(-6.26713) scale(1.18432,1.18432)" font-size="40" xml:space="preserve" fill="#e439ff" fill-rule="nonzero" stroke="none" stroke-width="1" stroke-linecap="butt" stroke-linejoin="miter" stroke-miterlimit="10" stroke-dasharray="" stroke-dashoffset="0" font-family="&quot;Microsoft YaHei&quot;, &quot;微软雅黑&quot;, STXihei, &quot;华文细黑&quot;" font-weight="normal" text-anchor="start" style="mix-blend-mode: normal"><tspan x="0" dy="0">CARLA</tspan><tspan x="0" dy="46.15px">PLAYLIST</tspan></text><text transform="translate(273.77311,170.36839) rotate(-7.52683) scale(0.5,0.5)" font-size="40" xml:space="preserve" fill="#4c29bb" fill-rule="nonzero" stroke="none" stroke-width="1" stroke-linecap="butt" stroke-linejoin="miter" stroke-miterlimit="10" stroke-dasharray="" stroke-dashoffset="0" font-family="&quot;Microsoft YaHei&quot;, &quot;微软雅黑&quot;, STXihei, &quot;华文细黑&quot;" font-weight="normal" text-anchor="start" style="mix-blend-mode: normal"><tspan x="0" dy="0">DEMO</tspan></text><path d="M380.73275,183.33239c0.01097,0.299 -0.02032,0.50274 -0.02032,0.50274l-0.19591,0.97181c-0.93383,2.487 -1.21267,4.50986 -4.07827,5.69268c-1.72464,0.71187 -6.06294,-0.3683 -7.97535,-0.46427c-3.88039,-0.19473 -7.99368,0.45307 -11.88274,0.66757c-3.52201,0.19426 -6.67393,-0.13411 -9.16727,2.85741c-0.20101,1.90012 -1.30537,4.67992 -1.02837,6.46087c0.08739,0.56187 0.59639,0.94566 0.86359,1.43833c0.74381,1.37147 0.92853,3.16616 2.04241,4.22339c0.44992,0.42704 1.2057,0.25023 1.7597,0.51228c2.88436,1.36437 5.57605,1.96699 8.70171,2.75775c1.63294,0.41312 3.23181,0.99676 4.89641,1.24922c2.28735,0.34691 4.81052,0.47396 7.0427,1.08161c1.32394,0.3604 3.09294,0.18324 3.89639,1.33922c0.80346,1.15598 0.11178,2.88314 0.03974,4.3239c-0.12529,2.50577 -0.79603,5.17667 -1.18731,7.65482c-0.63099,1.78593 -1.4844,3.48189 -2.32417,5.17317c-0.51979,1.04684 -0.55726,2.45875 -1.42901,3.20661c-3.49088,2.99479 -10.0318,0.88875 -13.90714,0.29358c-11.99451,-1.8421 -25.40907,-2.93439 -34.26359,-12.4569c-2.34544,-3.36236 -5.26786,-6.84159 -6.17816,-11.05307c-2.10122,-9.72124 1.45771,-20.95688 5.44966,-29.62997c0.87598,-1.9032 1.70907,-3.941 3.16233,-5.40881c3.53656,-3.57192 8.16948,-4.21329 12.69912,-5.33521c3.34218,-1.41922 7.0784,-1.84073 10.69519,-1.64375c1.974,0.10751 4.82713,0.99163 6.73136,0.78265c0.95867,-0.10521 0.82947,-1.85568 1.03922,-2.84536c0.36579,-1.72597 0.52772,-3.48952 0.79559,-5.23368c0.72442,-4.71696 0.29888,-9.16 0.69565,-13.87801c0.43079,-5.12241 1.70516,-9.91414 3.25544,-14.76516c1.45053,-4.53468 2.62959,-9.11113 3.52922,-13.79634c0.29415,-1.53195 1.16749,-8.37166 1.45241,-8.94162c0.93963,-1.87965 2.27787,-3.88942 4.16612,-4.64025c1.35381,-0.53832 6.64711,3.05934 8.07597,3.72208c2.57151,1.19273 5.4923,1.64906 8.11199,2.73178c2.58745,1.0694 4.79098,2.81432 7.45092,3.64164c1.47071,0.45743 3.04409,0.60814 4.4434,1.26189c3.2876,1.53596 6.64894,5.46443 8.73004,8.43192c2.71348,2.92268 6.19142,5.30267 9.37659,7.66475c1.2967,0.96161 4.66091,3.11818 5.11989,4.95262c0.354,1.41486 0.0021,3.01551 -0.54185,4.37707c-0.13707,0.34311 -3.41339,3.70457 -3.90796,4.19589c-2.51515,2.49864 -5.23174,6.11104 -8.13868,8.06452c-1.72934,1.16213 -3.43049,2.8843 -5.46896,2.96529c-1.78132,0.07077 -3.76151,-3.64381 -4.74677,-4.88723c-1.0627,-1.34116 -2.55672,-2.24259 -3.68925,-3.51892c-1.74586,-1.96755 -2.4566,-4.265 -4.2516,-6.14628c-0.52746,-0.64587 -1.68924,-2.75933 -1.61597,-1.90668c0.38311,4.45869 -1.04995,9.5267 -1.7365,13.99704c-0.64857,4.22303 -0.76037,9.26636 -2.08751,13.31013c-0.27947,0.85154 -1.06171,1.46777 -1.31852,2.32682c-0.81069,2.71185 -0.47057,5.69251 -1.29029,8.4015c-0.49348,1.63085 -1.42949,3.14121 -1.65979,4.83127c0,0 -0.03129,0.20373 -0.13148,0.48567z" fill="#e439ff" stroke="none" stroke-width="0.5" stroke-linecap="butt"/><text transform="translate(268.7731,165.36839) rotate(-7.52683) scale(0.5,0.5)" font-size="40" xml:space="preserve" fill="#e439ff" fill-rule="nonzero" stroke="none" stroke-width="1" stroke-linecap="butt" stroke-linejoin="miter" stroke-miterlimit="10" stroke-dasharray="" stroke-dashoffset="0" font-family="&quot;Microsoft YaHei&quot;, &quot;微软雅黑&quot;, STXihei, &quot;华文细黑&quot;" font-weight="normal" text-anchor="start" style="mix-blend-mode: normal"><tspan x="0" dy="0">DEMO</tspan></text></g></g></svg>