<svg version="1.1" xmlns="http://www.w3.org/2000/svg" xmlns:xlink="http://www.w3.org/1999/xlink" width="119.5" height="46" viewBox="0,0,119.5,46"><g transform="translate(-180.25,-157)"><g data-paper-data="{&quot;isPaintingLayer&quot;:true}" fill-rule="nonzero" stroke="none" stroke-linecap="butt" stroke-linejoin="miter" stroke-miterlimit="10" stroke-dasharray="" stroke-dashoffset="0" style="mix-blend-mode: normal"><path d="M180.25,203v-46h119.5v46z" fill="#600227" stroke-width="0"/><text transform="translate(210.90821,185.76875) scale(0.5,0.5)" font-size="40" xml:space="preserve" fill="#ff0569" fill-rule="nonzero" stroke="none" stroke-width="1" stroke-linecap="butt" stroke-linejoin="miter" stroke-miterlimit="10" stroke-dasharray="" stroke-dashoffset="0" font-family="&quot;Microsoft YaHei&quot;, &quot;微软雅黑&quot;, STXihei, &quot;华文细黑&quot;" font-weight="normal" text-anchor="start" style="mix-blend-mode: normal"><tspan x="0" dy="0">BOSS!</tspan></text><path d="M199.41185,162.25809c0.06758,0.12997 0.11016,0.29374 0.11016,0.50007c0,0.69541 -0.4836,0.90723 -0.7782,0.97174c-0.44181,0.65045 -1.18007,1.76635 -1.17564,2.01825c0.0158,0.89935 1.88384,2.36142 1.94093,3.03086c0.11041,1.29469 -2.08539,3.65363 -2.89365,4.45674c-0.01393,0.01384 -1.61589,0.97716 -1.64981,1.49702c-0.04618,0.70767 3.43062,2.1018 3.58042,3.31074c0.16106,1.29985 -1.45926,2.60855 -2.96317,3.15019c0.14504,0.02946 0.29009,0.05892 0.43513,0.08838c1.67276,0.00988 5.46682,1.02349 5.45104,3.37089c-0.00714,1.06273 -3.57337,3.19156 -3.97507,4.39854c-0.06265,0.18823 0.40298,-0.23641 0.5778,-0.14265c0.40544,0.21744 0.59409,0.71935 0.97595,0.97595c0.7391,0.49667 4.59938,1.96862 4.67665,2.89812c0.14188,1.70669 -4.48195,3.63744 -4.20642,4.69439c0.09843,0.37757 0.26597,0.72992 0.45461,1.07467l0.35744,-0.23829l0.64305,0.96458c0.11072,0.16096 0.17553,0.35595 0.17553,0.56608c0,0.55228 -0.44772,1 -1,1c-0.1393,0 -0.27195,-0.02848 -0.39245,-0.07995l-1.60553,-0.64221c-1.77099,-0.70839 -3.34755,-1.2902 -4.86163,-2.17387l-0.09396,0.18792l-1.28189,-0.64095c-0.33825,-0.16034 -0.57216,-0.50491 -0.57216,-0.90412c0,-0.3992 0.23392,-0.74377 0.57216,-0.90412l1.23961,-0.61981c0.34059,-0.23099 0.95483,-0.7685 1.56667,-1.13089c-0.80081,-0.13536 -1.56475,-0.50695 -2.29584,-0.80772c-1.49175,-0.62006 -5.33733,-1.20174 -4.93229,-3.69368c0.09124,-0.56135 0.98639,-0.5683 1.45772,-0.88656c1.31562,-0.88835 2.46587,-2.0119 3.7314,-2.96633c0.43745,-0.32991 -1.01352,-0.41671 -1.51784,-0.63088c-0.603,-0.25607 -1.20181,-0.52204 -1.80653,-0.77405c-1.96732,-0.81986 -5.3497,-1.39141 -6.97501,-2.67589c-0.6527,-0.51583 -1.59321,-1.23403 -1.42522,-2.04882c0.164,-0.79541 1.37299,-0.87393 2.10174,-1.23239c1.3965,-0.6869 3.21249,-1.62099 4.85034,-2.07744l-0.06294,-0.09441l0.18688,-0.12459c-0.79223,-0.45252 -1.74889,-0.70525 -2.28246,-1.42756c-0.56361,-0.76298 -0.54795,-1.8163 -0.82193,-2.72445c1.39653,-0.76538 2.97244,-1.64544 4.48645,-2.15171c0.15734,-0.05261 2.96433,-0.40846 3.2427,-0.84955c0.09346,-0.14809 -0.35476,-0.09587 -0.47606,-0.22217c-0.4245,-0.44198 -0.75349,-0.96667 -1.1301,-1.45012c-1.16057,-1.48983 -2.84198,-3.0754 -3.74581,-4.72561c-0.34754,-0.63453 -1.05057,-1.40403 -0.71995,-2.04754c0.31764,-0.61824 1.33497,-0.41744 2.02579,-0.49411c3.16388,-0.35114 7.05006,0.29491 10.12847,0.97521c0,0 0.97619,0.21693 0.75926,1.19312c-0.02174,0.09782 -0.0511,0.18367 -0.08634,0.25895z" fill="#ff0569" stroke-width="0.5"/><path d="M279.95311,162.11938c-0.21693,-0.97618 0.75926,-1.19312 0.75926,-1.19312c3.07842,-0.6803 6.96459,-1.32635 10.12847,-0.97521c0.69082,0.07667 1.70816,-0.12412 2.0258,0.49411c0.33062,0.64351 -0.37242,1.413 -0.71996,2.04754c-0.90383,1.65022 -2.58524,3.23578 -3.74582,4.72561c-0.3766,0.48345 -0.70559,1.00814 -1.13009,1.45012c-0.12131,0.1263 -0.56952,0.07409 -0.47606,0.22218c0.27837,0.44109 3.08536,0.79693 3.2427,0.84954c1.51401,0.50627 3.08992,1.38634 4.48645,2.15171c-0.27397,0.90815 -0.25831,1.96147 -0.82193,2.72445c-0.53357,0.72231 -1.49023,0.97504 -2.28246,1.42756l0.18688,0.12459l-0.06295,0.09442c1.63786,0.45646 3.45385,1.39054 4.85034,2.07744c0.72875,0.35845 1.93774,0.43698 2.10174,1.23238c0.168,0.81479 -0.77251,1.53299 -1.42522,2.04882c-1.62531,1.28448 -5.0077,1.85603 -6.97501,2.67589c-0.60472,0.25201 -1.20353,0.51797 -1.80653,0.77405c-0.50432,0.21417 -1.95528,0.30096 -1.51784,0.63088c1.26553,0.95443 2.41579,2.07798 3.7314,2.96633c0.47133,0.31826 1.36648,0.32521 1.45772,0.88656c0.40504,2.49194 -3.44054,3.07362 -4.93229,3.69368c-0.73109,0.30077 -1.49502,0.67236 -2.29584,0.80772c0.61184,0.36239 1.22608,0.89989 1.56667,1.13089l1.23962,0.61981c0.33824,0.16035 0.57216,0.50491 0.57216,0.90412c0,0.3992 -0.23392,0.74377 -0.57216,0.90412l-1.2819,0.64094l-0.09395,-0.18792c-1.51407,0.88367 -3.09064,1.46548 -4.86163,2.17387l-1.60553,0.64221c-0.12049,0.05146 -0.25314,0.07995 -0.39245,0.07995c-0.55229,0 -1,-0.44771 -1,-1c0,-0.21013 0.06481,-0.40512 0.17553,-0.56608l0.64305,-0.96458l0.35744,0.2383c0.18863,-0.34474 0.35618,-0.6971 0.45461,-1.07467c0.27553,-1.05695 -4.3483,-2.98771 -4.20642,-4.6944c0.07727,-0.9295 3.93755,-2.40145 4.67665,-2.89812c0.38186,-0.25661 0.57051,-0.75851 0.97595,-0.97595c0.17483,-0.09376 0.64045,0.33088 0.57781,0.14265c-0.40169,-1.20699 -3.96792,-3.33581 -3.97507,-4.39854c-0.01578,-2.3474 3.77828,-3.36102 5.45105,-3.37089c0.14504,-0.02946 0.29008,-0.05892 0.43512,-0.08838c-1.5039,-0.54164 -3.12422,-1.85035 -2.96317,-3.15019c0.1498,-1.20894 3.6266,-2.60308 3.58042,-3.31074c-0.03392,-0.51986 -1.63589,-1.48318 -1.64981,-1.49702c-0.80827,-0.80311 -3.00406,-3.16205 -2.89365,-4.45674c0.05708,-0.66943 1.92513,-2.13151 1.94093,-3.03086c0.00442,-0.2519 -0.73383,-1.36781 -1.17565,-2.01826c-0.29459,-0.06452 -0.77819,-0.27633 -0.77819,-0.97174c0,-0.20634 0.04258,-0.3701 0.11016,-0.50007c-0.03524,-0.07528 -0.06461,-0.16112 -0.08634,-0.25895z" data-paper-data="{&quot;index&quot;:null}" fill="#ff0569" stroke-width="0.5"/></g></g></svg>