<svg version="1.1" xmlns="http://www.w3.org/2000/svg" xmlns:xlink="http://www.w3.org/1999/xlink" width="382.34375" height="129.65289" viewBox="0,0,382.34375,129.65289"><g transform="translate(-49.08105,-163.51875)"><g data-paper-data="{&quot;isPaintingLayer&quot;:true}" fill-rule="nonzero" stroke="none" stroke-linecap="butt" stroke-linejoin="miter" stroke-miterlimit="10" stroke-dasharray="" stroke-dashoffset="0" style="mix-blend-mode: normal"><text transform="translate(49.33105,185.76875) scale(0.5,0.5)" font-size="40" xml:space="preserve" fill="#000000" fill-rule="nonzero" stroke="none" stroke-width="1" stroke-linecap="butt" stroke-linejoin="miter" stroke-miterlimit="10" stroke-dasharray="" stroke-dashoffset="0" font-family="Malgun Gothic" font-weight="normal" text-anchor="start" style="mix-blend-mode: normal"><tspan x="0" dy="0">For the best sound, use your headphones</tspan></text><path d="M273.38903,250.66549l0.38424,0.25662c-0.01338,0.27614 -0.2108,0.65274 -0.04014,0.82843c0.15388,0.15842 0.3466,-0.27668 0.54406,-0.30966c0.86572,-0.14458 1.74692,-0.02049 2.62016,0c1.85168,0.04345 3.51508,0.94694 4.8566,2.66783c3.6746,4.71376 3.02615,11.74582 2.99405,17.7655c-0.96596,4.83838 -0.07928,10.37892 -1.35647,15.03949c-2.27867,8.31505 -12.79153,5.53979 -18.28487,5.53979c-0.74065,0 -3.46244,0.12329 -3.98321,-0.48049c-0.50374,-0.58404 -0.20607,-1.70197 -0.3668,-2.53774c-0.39269,-2.04203 -0.45361,-3.59069 -0.45361,-5.73113c0,-8.80268 -1.1807,-19.27816 0.48894,-27.80041c0.30951,-0.83756 0.35312,-1.93598 0.92851,-2.51269c0.96185,-0.96406 3.21071,-0.34337 4.20658,-0.376c0.18082,-0.00592 -0.34131,-0.2603 -0.38371,-0.48049c-0.09229,-0.47922 0.05632,-0.98988 0.00637,-1.47885c-0.20849,-2.04116 -0.60939,-3.93393 -0.86284,-5.91406c-0.20472,-1.59942 0.2161,-3.33505 0,-4.92151c-0.85745,-6.29475 -4.72483,-7.70256 -9.11705,-9.07756c-1.09851,-0.48879 -1.98658,-1.53152 -2.94262,-2.36692c-2.36273,-2.06459 -5.59054,0.77001 -7.4534,-2.80875c-1.35346,-2.60016 0.09982,-7.32842 2.0855,-8.35938c1.62613,-0.84428 4.24355,0.16657 5.8298,0.49763c2.99985,0.62608 5.63557,0.72966 8.30817,2.93461c2.54455,1.59316 5.50245,3.60876 7.34266,6.39401c4.14573,6.2748 2.70511,15.28888 4.59664,22.39469c0,0 0.10267,0.38568 0.05246,0.83705z" fill="#000000" stroke-width="0.5"/><path d="M205.09628,250.10187c1.89152,-7.10581 0.4509,-16.11988 4.59664,-22.39469c1.8402,-2.78525 4.79811,-4.80084 7.34266,-6.39401c2.67261,-2.20495 5.30832,-2.30853 8.30817,-2.93461c1.58625,-0.33105 4.20367,-1.34192 5.8298,-0.49763c1.98567,1.03096 3.43897,5.75922 2.0855,8.35938c-1.86285,3.57877 -5.09066,0.74416 -7.4534,2.80875c-0.95604,0.83541 -1.84411,1.87813 -2.94262,2.36693c-4.39222,1.37501 -8.2596,2.78281 -9.11705,9.07756c-0.2161,1.58647 0.20472,3.3221 0,4.92151c-0.25345,1.98012 -0.65436,3.87289 -0.86284,5.91405c-0.04994,0.48897 0.09866,0.99964 0.00637,1.47885c-0.0424,0.22019 -0.56453,0.47457 -0.38371,0.48049c0.99586,0.03263 3.24473,-0.58806 4.20658,0.376c0.57538,0.5767 0.619,1.67513 0.92851,2.51269c1.66964,8.52225 0.48894,18.99773 0.48894,27.80041c0,2.14044 -0.06092,3.6891 -0.45361,5.73113c-0.16072,0.83577 0.13695,1.95369 -0.3668,2.53774c-0.52077,0.60379 -3.24256,0.48049 -3.98321,0.48049c-5.49333,0 -16.0062,2.77525 -18.28487,-5.53979c-1.27719,-4.66058 -0.39051,-10.20111 -1.35647,-15.03949c-0.0321,-6.01968 -0.68055,-13.05174 2.99405,-17.7655c1.34152,-1.72089 3.00492,-2.62438 4.8566,-2.66783c0.87323,-0.02049 1.75444,-0.14458 2.62016,0c0.19746,0.03298 0.39018,0.46807 0.54407,0.30966c0.17066,-0.17569 -0.02676,-0.55228 -0.04014,-0.82843l0.38424,-0.25662c-0.05021,-0.45137 0.05246,-0.83705 0.05246,-0.83705z" data-paper-data="{&quot;index&quot;:null}" fill="#000000" stroke-width="0.5"/><path d="M246.28277,291.1001c-0.22704,0.35527 -0.7339,0.34171 -0.7339,0.34171l-0.28504,-0.04556c-1.38021,0.36099 -2.82533,0.23503 -4.22912,0.40819c-1.11207,0.13718 -2.17752,0.51446 -3.29185,0.65133c-1.9825,0.24349 -4.36817,-0.07905 -6.35762,-0.19222c-1.82906,-1.10645 -4.81434,-1.45343 -6.54206,-2.83968c-1.02293,-0.82076 -1.18121,-1.6489 -2.07325,-2.50472c-0.8029,-0.7703 -1.60891,-2.25441 -2.00363,-3.31964c-0.71685,-1.9345 -0.84984,-5.28746 -0.06042,-7.23511c0.07126,-4.53917 4.34038,-8.67899 8.69242,-10.41801c1.63992,-0.65529 3.55633,-0.09589 5.16978,-0.85574c0.69319,-2.921 1.49468,-5.82786 2.0555,-8.75646c0.33484,-1.74851 0.38211,-3.57932 0.9797,-5.31635c0.27842,-0.8093 1.02978,-2.58567 2.13683,-2.85079c0.34024,-0.08148 1.80749,0.91292 2.18898,1.15794c3.45619,2.21979 5.80128,5.19826 8.91368,7.75507c2.79988,2.30008 6.24141,4.83235 7.83148,7.92182c-1.27156,1.35205 -2.54875,2.67801 -3.85493,3.98965c-0.26045,0.26154 -0.38273,0.64673 -0.70856,0.83925c-0.83461,0.49314 -1.82567,0.49769 -2.62558,-0.07023c-0.5334,-0.3787 -0.50299,-1.15665 -0.91741,-1.64207c-0.18881,-0.22117 -0.5748,-0.25292 -0.76535,-0.47286c-0.86965,-1.00375 -1.57513,-2.24758 -2.39449,-3.32499c-0.57146,-0.75143 -1.15205,-1.49904 -1.78523,-2.20887c-0.05432,-0.06089 -0.12411,-0.13056 -0.19864,-0.20493c-0.1415,3.01936 0.62015,6.0583 0.521,9.08961c-0.03177,0.97116 0.27292,2.8629 -0.72782,3.53783c-0.34852,0.23505 -0.86478,0.08779 -1.29914,0.10482c-1.16588,0.04571 -2.37391,-0.0635 -3.53999,-0.09469c-2.36121,-0.06315 -4.36959,0.41287 -6.58837,1.01813c-0.52717,0.14381 -0.62979,0.52683 -1.09184,0.79769c-0.40311,0.23631 -1.27604,1.08507 -1.50431,1.46731c-1.17384,1.96556 -0.13502,5.20151 2.32788,5.93679c2.64753,0.8775 5.92544,-0.37237 8.74515,-0.29695c1.25106,0.03346 2.6817,-0.17728 3.60746,0.86613c0.53031,0.5977 0.39361,1.74596 0.37244,2.44426c-0.04278,1.41155 -0.04549,2.16569 0.38952,3.47346c0,0 0.19342,0.58149 -0.35327,0.84884z" fill="#ff004f" stroke-width="0.5"/><path d="M231.56798,227.62613l-5.10205,-9.61111l22.40466,-0.77778l-1.77462,10.38889z" fill="#000000" stroke-width="0"/></g></g></svg>