<svg version="1.1" xmlns="http://www.w3.org/2000/svg" xmlns:xlink="http://www.w3.org/1999/xlink" width="49.22109" height="48.19502" viewBox="0,0,49.22109,48.19502"><defs><linearGradient x1="240" y1="166.49139" x2="240" y2="193.50861" gradientUnits="userSpaceOnUse" id="color-1"><stop offset="0" stop-color="#ffe0f6"/><stop offset="1" stop-color="#ee00ff"/></linearGradient></defs><g transform="translate(-215.38992,-157.30961)"><g data-paper-data="{&quot;isPaintingLayer&quot;:true}" fill-rule="nonzero" stroke="none" stroke-linecap="butt" stroke-linejoin="miter" stroke-miterlimit="10" stroke-dasharray="" stroke-dashoffset="0" style="mix-blend-mode: normal"><path d="M227.12263,180c0,7.4606 5.7654,13.50861 12.87737,13.50861c7.11198,0 12.87737,-6.04801 12.87737,-13.50861c0,-7.4606 -5.7654,-13.50861 -12.87737,-13.50861c-7.11198,0 -12.87737,6.04801 -12.87737,13.50861z" fill="url(#color-1)" stroke-width="0"/><path d="M216.54167,164.24075c-0.11113,0.06719 -0.25773,0.10785 -0.45102,0.09536c-0.74844,-0.04835 -0.70009,-0.79679 -0.70009,-0.79679l0.08631,-1.33599c0.02214,-0.39434 0.34892,-0.7073 0.7488,-0.7073c0.2994,0 0.55783,0.17544 0.67809,0.42912l0.60329,1.20659c0.18128,0.12824 0.36256,0.25647 0.54384,0.38471c3.49147,2.64173 1.29381,-0.36207 2.76128,-2.86182c0.42122,-0.71753 3.99655,-4.30253 4.91532,-3.10067c1.08074,1.41374 -0.81404,4.77658 0.7285,6.64457c0.72263,0.87509 2.44203,1.25174 3.3432,2.14127c0,0 0.53033,0.53033 0,1.06066c-0.53033,0.53033 -1.06066,0 -1.06066,0c-0.94204,-0.95712 -2.62968,-1.26655 -3.43916,-2.24682c-0.82207,-0.99551 -1.66548,-3.94619 -1.12632,-5.63501c-0.11224,0.13681 -0.21922,0.25719 -0.30058,0.33304c-0.59062,0.55058 -1.38304,0.92869 -1.80176,1.61908c-1.19855,1.9762 0.59495,6.37302 -3.64601,4.19522c-0.4713,-0.24202 -0.84956,-0.63329 -1.27434,-0.94993c-0.2029,-0.15843 -0.4058,-0.31687 -0.6087,-0.4753z" fill="#fe5cff" stroke-width="0.5"/><path d="M222.58685,204.04019c-0.24459,0.709 -0.95359,0.46441 -0.95359,0.46441l-1.68057,-0.95603c0.48044,-0.71695 0.96085,-1.43396 1.43273,-2.15658c1.08438,-3.06664 -1.71012,-1.63454 -2.71066,-4.11369c-0.85573,-2.12034 4.20851,-3.43747 5.28114,-3.98924c0.4793,-0.24655 -0.28443,-1.03982 -0.43453,-1.55749c-0.23725,-0.81821 -1.57919,-3.67164 -1.32582,-4.27458c0.36651,-0.87217 3.97758,-0.35257 4.66488,-0.32941c0,0 0.74957,0.02527 0.72431,0.77484c-0.02527,0.74957 -0.77484,0.72431 -0.77484,0.72431c-0.98777,-0.0333 -1.99397,0.09221 -2.96329,-0.1007c-0.06377,-0.01269 -0.15358,-0.0876 -0.22967,-0.16319c0.89384,1.12678 2.58481,4.67504 1.5029,5.87239c-0.63267,0.70017 -3.10709,1.49558 -4.00569,2.02179c-0.33458,0.19593 -1.31831,0.36331 -1.00304,0.589c2.279,1.63136 3.71137,1.99159 2.6219,5.20473c-0.31976,0.49209 -0.74489,1.03746 -1.31693,1.16845l0.70636,-0.13259c0,0 0.709,0.24459 0.46441,0.95359z" fill="#fe5cff" stroke-width="0.5"/><path d="M259.1826,205.16077c-0.41603,0.62404 -1.04006,0.20801 -1.04006,0.20801l-0.73192,-0.48868c-0.39123,-0.21705 -2.35522,-1.29637 -2.44484,-1.40712c-0.6072,-0.75031 -0.08992,-1.93587 0.01246,-2.89565c0.0982,-0.92072 -2.30749,-2.00909 -2.81993,-2.4136c-0.28064,-0.22154 -0.43122,-0.73096 -0.78874,-0.72694c-1.76475,0.01985 -1.79444,3.36317 -4.40931,1.16108c-1.22248,-1.0295 -0.76657,-3.60859 -0.76657,-4.96302c0,0 0,-0.75 0.75,-0.75c0.75,0 0.75,0.75 0.75,0.75c0,0.8595 -0.41196,3.11928 0.27327,3.85101c0.9223,0.98488 2.60751,-1.54436 3.39113,-1.54903c0.6725,-0.004 3.80588,2.2806 4.25087,2.84919c0.42204,0.53926 0.83083,1.17834 0.86762,1.86213c0.02397,0.44551 -0.61454,0.70033 -0.70627,1.13695c-0.18982,0.90356 1.88261,1.51467 2.42123,1.81428l0.78307,0.52131c0,0 0.62404,0.41603 0.20801,1.04006z" fill="#fe5cff" stroke-width="0.5"/><path d="M263.23799,169.46547c0.10255,-0.16565 0.28793,-0.31537 0.62302,-0.31537c0.75,0 0.75,0.75 0.75,0.75l-0.72779,1.00217c-1.03585,0.03066 -3.25667,0.50477 -4.13838,0.07963c-0.23009,-0.11094 -2.09661,-3.71938 -3.03054,-2.10095c-0.41392,0.71728 0.61765,1.54179 0.82389,2.34384c0.32425,1.26096 1.99024,5.23494 1.40056,6.40049c-0.35875,0.70911 -3.81337,0.9567 -4.53443,1.09189c0,0 -0.73715,0.13822 -0.87537,-0.59894c-0.13822,-0.73715 0.59894,-0.87537 0.59894,-0.87537c0.98287,-0.18429 1.95111,-0.48223 2.94862,-0.55287c0.2031,-0.01438 0.56144,0.33027 0.59687,0.12978c0.25287,-1.43074 -1.65031,-5.06473 -1.96149,-6.67416c-0.12884,-0.66637 -0.63602,-1.42653 -0.29679,-2.01438c1.93719,-3.35699 4.0134,1.03287 4.98123,1.49953c0.52519,0.25324 1.90002,-0.03032 2.84166,-0.16529z" fill="#fe5cff" stroke-width="0.5"/></g></g></svg>