<svg version="1.1" xmlns="http://www.w3.org/2000/svg" xmlns:xlink="http://www.w3.org/1999/xlink" width="159.45594" height="284.78042" viewBox="0,0,159.45594,284.78042"><g transform="translate(-160.27203,-37.6098)"><g data-paper-data="{&quot;isPaintingLayer&quot;:true}" fill-rule="nonzero" stroke="none" stroke-width="0.5" stroke-linecap="butt" stroke-linejoin="miter" stroke-miterlimit="10" stroke-dasharray="" stroke-dashoffset="0" style="mix-blend-mode: normal"><path d="M281.19461,203.4066c0.50452,0.2844 0.67291,0.87382 0.67291,0.87382c4.48443,15.7052 10.67733,31.00491 17.10212,45.9961c4.23775,9.88809 9.57719,19.54022 13.4543,29.54116c1.90783,4.92122 2.70971,10.12131 3.94845,15.19272c0.51855,2.12295 1.66538,3.91194 2.20967,6.06128c0.18014,0.53933 0.42918,1.06035 0.54041,1.61797c0.192,0.96259 1.00257,2.1755 0.36516,2.92193c-1.90898,2.23552 -6.38387,-0.8279 -8.23137,0.39706c-1.32915,0.88127 -1.09865,3.00266 -1.82363,4.42311c-0.79131,1.55039 -1.61743,3.18796 -2.94797,4.31023c-3.24473,2.73683 -11.47677,6.1087 -15.78183,4.74066c-1.24448,-0.39547 -2.00017,-1.6957 -3.11538,-2.37499c-1.52387,-0.92819 -2.94809,-0.68142 -4.25154,-2.12339c-5.6676,0.28333 -8.64207,6.44066 -14.26538,7.31994c-2.58107,0.40359 -4.0022,-0.67964 -5.96075,-1.85869c-3.8832,-2.33768 -9.65765,-3.26806 -12.63591,-7.04559c-1.13254,-1.43649 -0.89146,-4.30658 -1.32781,-6.01656c-2.09844,-7.37745 -4.97737,-14.59881 -6.61388,-22.12784c-0.52855,-2.43166 0.17363,-5.09507 -0.09875,-7.54643c-0.59066,-5.31574 -1.6119,-10.68092 -2.19357,-16.03721c-0.26279,-2.41983 -1.13721,-4.50575 -1.15471,-6.94144c0,-13.34457 -0.55631,-26.84948 -0.55631,-40.05435c0,-5.01678 -0.85185,-10.87665 0.01796,-15.79947c0.23672,-1.33972 1.23201,-2.42809 1.76987,-3.67773c1.02102,-2.37219 1.98768,-4.70799 4.43488,-6.18353c2.86955,-1.73019 7.11929,-2.41232 10.30496,-3.47421c3.87434,-1.28902 9.79213,-2.24324 13.67474,-0.55631c6.52977,2.83709 9.41436,12.01982 11.4495,18.12523l0.41519,-0.24784c0,0 0.36291,0.18145 0.59868,0.54436z" fill="#b30042"/><path d="M199.40408,202.86223l0.41519,0.24784c2.03514,-6.10541 4.91973,-15.28815 11.4495,-18.12523c3.88261,-1.68694 9.80041,-0.73271 13.67475,0.55631c3.18568,1.06189 7.43541,1.74402 10.30496,3.47421c2.4472,1.47554 3.41386,3.81134 4.43488,6.18353c0.53787,1.24964 1.53315,2.338 1.76986,3.67772c0.86981,4.92282 0.01796,10.78269 0.01796,15.79948c0,13.20487 -0.55632,26.70978 -0.55632,40.05435c-0.01749,2.43569 -0.89192,4.52161 -1.15471,6.94144c-0.58167,5.35629 -1.6029,10.72147 -2.19357,16.03721c-0.27239,2.45136 0.4298,5.11477 -0.09875,7.54643c-1.63652,7.52902 -4.51544,14.75038 -6.61389,22.12784c-0.43635,1.70998 -0.19527,4.58007 -1.32781,6.01657c-2.97826,3.77753 -8.75272,4.7079 -12.63591,7.04558c-1.95854,1.17904 -3.37968,2.26227 -5.96075,1.85869c-5.6233,-0.87928 -8.59778,-7.03662 -14.26538,-7.31995c-1.30345,1.44198 -2.72766,1.1952 -4.25154,2.1234c-1.11522,0.67928 -1.8709,1.97952 -3.11538,2.37498c-4.30507,1.36805 -12.5371,-2.00383 -15.78183,-4.74065c-1.33055,-1.12228 -2.15667,-2.75986 -2.94797,-4.31024c-0.72499,-1.42045 -0.49448,-3.54183 -1.82364,-4.42311c-1.8475,-1.22496 -6.32239,1.83847 -8.23137,-0.39705c-0.63741,-0.74644 0.17316,-1.95935 0.36516,-2.92194c0.11123,-0.55763 0.36028,-1.07865 0.54041,-1.61797c0.54429,-2.14934 1.69111,-3.93832 2.20967,-6.06128c1.23874,-5.07141 2.0406,-10.27149 3.94844,-15.19272c3.87711,-10.00094 9.21656,-19.65307 13.45431,-29.54116c6.42479,-14.99118 12.61768,-30.2909 17.10211,-45.99609c0,0 0.16841,-0.58941 0.67292,-0.87382c0.23577,-0.36291 0.59868,-0.54437 0.59868,-0.54437z" data-paper-data="{&quot;index&quot;:null}" fill="#b30042"/><path d="M215.24419,252.40027c0.83446,0 0.83447,0.83446 0.83447,0.83446c0,1.66893 0,3.89418 0,5.56311c0,3.49199 -0.46018,6.37637 -1.13495,9.649c-0.29132,1.4129 0.33906,3.03431 0,4.45049c-1.19477,4.99035 -2.28146,8.77133 -4.79471,13.40088c-1.35747,2.4944 -3.33518,4.4498 -4.75297,6.85341c-1.45031,2.45875 -1.87567,5.34801 -3.23256,7.79787c-1.08012,1.95013 -2.23307,3.22999 -2.21848,5.65776c0.00788,1.31111 0.77085,3.01131 1.08837,4.28139c0,0 0.20239,0.80955 -0.60716,1.01194c-0.80955,0.20239 -1.01194,-0.60717 -1.01194,-0.60717c-0.34833,-1.39335 -1.11784,-3.17913 -1.13687,-4.61957c-0.03598,-2.72285 1.19671,-4.34348 2.42835,-6.53699c1.36932,-2.43869 1.7837,-5.36351 3.24681,-7.82291c1.42433,-2.3942 3.38088,-4.32693 4.73011,-6.81271c0.86992,-1.59877 2.53567,-3.42593 2.96944,-5.20568c0.61974,-2.54282 0.99321,-5.21541 1.66733,-7.78167c0.35775,-1.36188 -0.27179,-3.05387 0,-4.45048c0.61522,-3.16124 1.09029,-5.88977 1.09029,-9.26556c0,-1.66893 0,-3.33787 0,-5.0068v-0.55631c0,0 0,-0.83446 0.83446,-0.83446z" fill="#73002a"/><path d="M196.88595,250.73134c0.83446,0 0.83446,0.83447 0.83446,0.83447v0.55631c0,2.82627 0.13671,5.91318 -0.60165,8.58539c-1.67927,6.07748 -5.74375,11.95815 -8.79508,17.44367c-1.74758,2.62364 -3.92932,4.7792 -5.78545,7.28707c-2.20147,2.97447 -3.81112,6.7551 -5.76725,9.93306c-1.30292,2.11676 -3.59118,4.30962 -3.52823,6.81875c0,0 0,0.83447 -0.83446,0.83447c-0.83446,0 -0.83446,-0.83447 -0.83446,-0.83447c0.05664,-3.02255 2.22092,-5.1669 3.77586,-7.69352c1.98467,-3.22488 3.6208,-7.01365 5.84322,-10.04592c1.81455,-2.47576 3.98613,-4.59106 5.70593,-7.16843c2.98203,-5.36913 6.87499,-11.04467 8.59718,-16.96456c0.73277,-2.51883 0.55548,-5.51704 0.55548,-8.1955v-0.55631c0,0 0,-0.83447 0.83446,-0.83447z" fill="#73002a"/><path d="M253.2225,254.73155c0.72842,-0.40711 1.13553,0.32132 1.13553,0.32132l0.70273,1.28621c0.09051,0.6004 0.18102,1.2008 0.27152,1.8012c0.42644,3.23871 3.00879,5.4364 4.60411,8.10152c3.68571,6.15731 5.77438,12.49988 8.83424,18.77101c1.79048,1.79047 2.64692,4.24005 4.03975,6.35617c3.84618,5.8435 7.24397,10.77623 7.24397,18.05309c0,0 0,0.83447 -0.83446,0.83447c-0.83447,0 -0.83447,-0.83447 -0.83447,-0.83447c0,-6.90773 -3.30269,-11.59104 -6.96807,-17.13398c-1.38535,-2.09499 -2.22875,-4.52756 -4.00063,-6.29944c-3.20124,-6.27921 -5.1762,-12.67945 -8.9106,-18.88682c-1.75525,-2.91759 -4.28818,-5.18856 -4.826,-8.72553c-0.06684,-0.50104 -0.13368,-1.00207 -0.20052,-1.50311l-0.57842,-1.00613c0,0 -0.40711,-0.72842 0.32131,-1.13552z" fill="#73002a"/><path d="M280.33251,252.40027c0.83447,0 0.83446,0.83446 0.83446,0.83446c0,0.37088 0,1.29805 0,1.66893c0,5.02985 0.72512,7.7373 3.73666,11.75091c1.46998,1.9591 1.69077,4.68012 3.24133,6.57027c1.18899,1.44939 1.94939,2.4459 2.87808,3.99962c0.64105,1.0725 2.06759,1.36845 2.69466,2.67942c2.30617,1.15309 3.75882,4.33252 5.5631,6.11942c2.69099,2.66508 4.4691,6.10876 6.48759,9.51288c1.07718,1.81663 1.49529,4.09776 2.96969,5.5075c0,0 0.59006,0.59006 0,1.18011c-0.59006,0.59006 -1.18011,0 -1.18011,0c-1.61294,-1.66825 -2.02764,-3.81689 -3.22512,-5.83639c-1.95241,-3.29269 -3.67746,-6.6071 -6.23217,-9.18399c-1.81494,-1.83069 -3.24639,-4.96106 -5.5631,-6.11942c-0.74606,-1.43578 -2.05429,-1.64252 -2.86845,-2.88369c-0.98442,-1.50071 -1.64699,-2.46523 -2.82,-3.92371c-1.57051,-1.95272 -1.79143,-4.67596 -3.29942,-6.64619c-3.2477,-4.24319 -4.05169,-7.40774 -4.05169,-12.72675c0,-0.37088 0,-0.74174 0,-1.11262v-0.55631c0,0 0,-0.83446 0.83447,-0.83446z" fill="#73002a"/><path d="M237.1417,157.67554c0.35658,-0.50327 1.03814,-0.50328 1.03814,-0.50328h1c3.95515,0.03755 9.3221,2.14072 12.65716,4.18669c2.01159,1.23406 2.49597,2.12485 4.89203,2.94042c2.11394,1.39538 4.51496,1.8176 6.60798,3.05958c1.75059,1.03878 3.2595,2.9636 5,4c3.92368,2.33641 8.82431,3.5658 13.05346,5.41607c2.30685,1.00925 7.59567,2.31719 8.51554,4.90434c0.45065,1.26743 -2.32534,3.60605 -2.84229,4.12679c-5.87764,5.83131 -12.72688,10.65674 -19.80375,14.72334c-3.80987,2.18928 -6.99805,5.15351 -11.18485,6.57863c-2.80663,0.90738 -5.39578,1.40398 -8.24496,2.67065c-2.82203,1.2546 -5.40402,4.3976 -8.4501,4.87735c-2.35878,0.37151 -2.84762,-1.17198 -4.90046,-1.5c-4.49599,-0.7184 -9.89874,-4.23597 -13.98414,-6.68785c-7.12446,-5.0841 -15.15947,-9.82086 -23.13858,-13.80994c-1.93127,-0.96552 -6.3858,-2.00528 -5.29508,-5.29508c0.23111,-0.69706 1.35254,-0.59292 1.96087,-1.00429c2.56346,-1.73352 4.82041,-4.15023 7.29952,-6.08594c3.36694,-2.44994 6.7199,-5.06662 10.16497,-7.39128c3.31787,-2.23882 7.19307,-3.65294 10.46178,-5.97352c4.69016,-3.32972 9.26121,-7.28957 14.8356,-9.1718c0,0 0.14813,-0.04938 0.35715,-0.06087z" fill="#b30042"/><path d="M240.30042,162.83834l1.26331,0.70004c1.01771,1.01771 2.54809,3.25877 3.97835,3.68751c1.81954,0.54543 2.9695,0.91166 4.68696,2.07348c3.37068,1.173 5.37387,4.77319 8.81304,5.92652c1.41847,0.47569 3.45194,0.54917 4.98726,0.99622c3.2901,0.95799 6.10852,2.51647 9.1997,4.07726c1.21834,0.61516 2.58711,0.87088 3.95081,1.12853v-0.25564h1.5c0.69036,0 1.25,0.55964 1.25,1.25c0,0.44076 -0.22813,0.82825 -0.57275,1.05082l-1.48387,0.98925c-5.99889,3.95076 -13.27083,6.39182 -20.34389,8.16008c-4.79533,1.60164 -9.2836,3.91555 -13.98726,5.49622c-0.43746,0.14701 -0.95492,-0.21174 -1.38388,-0.04152c-1.24377,0.49355 -2.35973,1.70495 -3.69169,1.57681c-0.69579,-0.06694 -1.14816,-0.81719 -1.79235,-1.08851c-2.23272,-0.9404 -4.36869,-1.38074 -6.5435,-2.52025c-1.76863,-0.92669 -4.61683,-0.87521 -6.60354,-1.38226c-5.20316,0.03617 -10.43534,-2.97206 -15.24256,-4.55478c-1.08277,-0.35649 -5.00135,-1.24346 -5.32127,-2.39866c-0.21451,-0.77455 1.72805,-2.56893 2.33267,-3.17108c2.2582,-2.24891 5.52503,-3.42398 7.5914,-5.5828c3.3447,-2.2298 6.66565,-3.36309 10.24329,-5.15622c1.22729,-0.61513 3.19778,-1.79018 4.16531,-2.76099c0.47278,-0.47439 0.60854,-1.26342 1.16383,-1.63789c0.60219,-0.4061 1.44946,-0.25153 2.10419,-0.56598c0.80983,-0.38893 1.14027,-1.42381 1.88499,-1.9263c2.27141,-1.53259 3.88055,-2.40338 5.847,-4.36983c0,0 0.88388,-0.88389 1.76777,0c0.10042,0.10042 0.17802,0.20084 0.23669,0.29996z" fill="#120007"/><path d="M248.58214,143.58402c0,0 -5.56639,3.05926 -6.61614,4.7533c-2.96453,1.86173 -5.4063,1.04821 -8.65511,1.27885c-3.60743,0.2561 -7.60585,0.81505 -11.22039,0.80772c-2.67685,-0.00544 -16.8716,-3.87497 -20.14402,-4.65156c-5.81707,-1.38482 -10.04542,-0.32419 -15.59896,-2.58931c-1.90126,-0.77546 -20.9266,-7.79308 -16.81257,-11.70729c0.54426,-0.51783 5.20743,-1.9542 5.87036,-2.30758c3.00003,-0.72243 6.60249,-1.0162 9.43169,-2.20861c2.20858,-0.93084 4.25429,-2.50467 6.48379,-3.33953c2.27846,-0.85319 4.85654,-0.86387 7.13341,-1.73633c2.85882,-1.09545 5.49699,-2.92206 8.18714,-4.36828c0.91189,-2.54699 -1.36166,-6.18494 -1.60798,-8.85215c-0.3295,-3.56793 -0.82526,-7.08708 -1.1347,-10.63552c-0.21804,-2.50035 0.46401,-4.73106 0.63146,-7.14489c0.12042,-1.73584 -0.52508,-3.44491 -0.35117,-5.2288c-0.49547,-2.21839 0.34151,-4.39648 0.90209,-6.57371c1.56479,-6.07749 4.52373,-11.67659 6.80253,-17.49973c0.93048,-2.37769 1.78004,-6.81443 4.18705,-8.25998c1.39457,-0.83752 5.48853,1.03312 6.91658,1.45647c4.53525,1.34869 9.3974,2.27834 14.08907,2.89041c2.80534,0.36599 6.47783,0.37945 9.084,1.54651c0.49148,0.22009 0.70689,0.84913 1.18365,1.09952c2.18485,1.14746 5.57894,1.4707 7.98046,2.26989c3.0367,1.01057 6.07611,1.66655 8.83812,3.36737c0.07605,0.1741 0.04318,0.56574 0.22814,0.52231c0.18495,-0.04343 -0.09504,-0.39143 -0.02819,-0.56926c0.31018,-0.82506 0.79643,-1.57473 1.13175,-2.3899c0.88457,-2.15044 2.08932,-4.18473 3.124,-6.24863c2.16906,-4.32666 4.67774,-8.16338 7.19889,-12.22121c1.26944,-2.04317 2.01482,-3.56951 3.26325,-5.05515l-0.27587,-0.21651l1.35966,-1.73246c0.14981,-0.19429 0.36494,-0.34019 0.6224,-0.40065c0.59441,-0.13958 1.18942,0.22913 1.329,0.82354c0.03751,0.15971 0.03832,0.31947 0.00791,0.47041l-0.30837,1.73307c-0.83641,4.65468 -0.49217,9.5404 -1.02659,14.25984c-0.63322,5.592 -1.52762,11.09318 -1.97189,16.7125c-1.40353,3.74201 -2.23392,7.6699 -3.7597,11.3557c-0.66583,1.60843 -1.13987,3.40816 -2.85942,4.34328c-0.17615,0.0958 -3.22609,-0.11466 -3.53868,-0.2217c-1.2923,-0.44252 -2.36036,-1.40461 -3.64021,-1.88193c-2.43515,-0.9082 -5.21516,-0.97912 -7.70723,-1.83011c-2.00116,-0.68336 -5.73745,-3.68168 -5.0909,-0.01116c0.66978,6.43135 -0.93531,13.39648 0.5439,19.65197c0.14335,0.60622 1.15291,5.77882 2.01112,5.74655c4.54412,-0.17087 9.3112,-1.82157 13.80587,-2.87159c2.54402,-0.97293 4.77255,-2.52886 7.26215,-3.51278c3.12389,-1.2346 7.05318,-1.77396 10.33209,-1.96932c1.73415,-0.10332 3.42327,-1.13456 5.16612,-1.21312c1.83962,-0.08291 7.16501,1.30337 7.65981,3.41051c0.36299,1.54582 -0.93418,2.5852 -1.78361,3.49308c-1.96823,5.32934 -7.24795,9.47385 -11.17961,13.23594c-1.35239,1.29406 -7.95856,6.1144 -9.07132,7.04267c-0.57063,0.47603 -6.59942,4.4824 -7.73596,5.29051c-1.1271,0.77591 -5.9044,3.06933 -8.05899,4.50699c-2.27702,1.51935 -5.33633,3.12504 -7.8628,4.17347c-2.56916,1.06614 -4.7271,3.20638 -4.7271,3.20638z" fill="#b30042"/><path d="M256.00329,109.01805c0.0106,0.05148 0.01873,0.1061 0.02409,0.16405c0.10188,1.10085 -0.99898,1.20273 -0.99898,1.20273l-0.09745,-0.04796c-6.42334,2.82261 -12.91942,4.36132 -19.87288,5.00481c-2.02151,0.16178 -3.96624,1.02779 -5.97526,1.43578c-5.8119,1.18028 -11.86154,1.65415 -17.81267,1.65003c-0.72084,-0.0005 -3.45075,0.45458 -3.96306,0.23916c-2.24062,-0.94216 -2.30154,-4.13681 -2.48123,-6.0786c-0.21395,-2.31194 -1.47135,-6.42985 0.72027,-8.15131c1.19748,-0.94059 4.16524,-0.24544 5.61643,-0.63679c3.55497,-0.95869 6.92897,-2.16845 10.63789,-2.77461c3.63585,-0.59422 7.27219,-0.79846 10.90525,-1.50642c4.70425,-0.93645 9.60808,-1.76847 14.1426,-3.3492c1.41235,-0.49235 3.99717,-1.68874 5.48754,-0.61846c0.58601,0.42083 -0.06423,1.44257 -0.04863,2.16387c0.01784,0.82523 0.16634,1.64247 0.24239,2.46438c0.31222,3.37382 0.88678,5.39496 3.17573,7.92214c0,0 0.3731,0.41209 0.29795,0.91642z" fill="#370014"/><path d="M196.87265,131.34111c2.31315,-0.17552 4.55619,0.33115 6.89052,0.33115c4.78458,0 8.92532,-0.90931 13.54653,-1.65698c3.83142,-0.61989 7.61836,-0.27583 11.37599,-1.62365c9.339,-3.33536 17.71011,-8.0609 27.59142,-9.70366c2.51786,-0.62413 4.9337,-1.6782 7.38273,-2.33092c4.0668,-1.08388 8.49401,-1.14796 12.50164,-2.63412c1.93785,-0.71862 3.5098,-1.52878 5.34355,-1.9983l-0.06874,-0.20622l1.40642,-0.46881c0.07926,-0.0285 0.16471,-0.04402 0.25378,-0.04402c0.41421,0 0.75,0.33579 0.75,0.75c0,0.20711 -0.08395,0.39461 -0.21967,0.53033l-0.66667,0.66667c-2.55455,2.53627 -5.39592,4.39076 -7.95032,6.94516c-1.30905,1.92762 -3.25126,3.03207 -5.18571,4.1625c-0.98317,0.57453 -1.68949,1.88902 -2.58547,2.60869c-2.45847,1.97465 -5.01472,3.74442 -7.45681,5.75845c-1.2841,1.05902 -2.83111,1.17293 -3.95772,2.29954c-1.8144,0.6048 -3.03977,2.35168 -4.66667,3.33333c-4.16975,2.51598 -8.5579,4.60639 -12.483,7.53285c-0.10113,0.11228 -0.23044,0.17327 -0.3411,0.20641c-0.10855,0.03994 -0.24883,0.06875 -0.39731,0.03942h-0.50621c-1.70673,0 -3.41346,0.00507 -5.12014,-0.00968c-3.15913,-1.05304 -6.81796,-1.38027 -10.05218,-2.34371c-1.88413,-0.56126 -4.3161,0.33691 -6.27383,0.01153c-2.59226,-0.43084 -4.69175,-1.553 -7.09688,-2.35471c-7.48729,-1.87182 -16.04376,-3.53917 -22.83974,-7.30342h-1.2839c-0.41421,0 -0.75,-0.33579 -0.75,-0.75c0,-0.41421 0.33579,-0.75 0.75,-0.75h1c3.77379,0 7.36086,-0.71338 11.10948,-0.99782z" fill="#120007"/><path d="M240.02761,183.71876c0.13294,0.33697 0.16693,0.78683 -0.14103,1.31487c-0.69338,1.18889 -1.73344,0.3963 -1.73344,0.3963l-1.80001,-1.46467c-0.23083,-0.71003 -0.46165,-1.42008 -0.69247,-2.13011c-0.98507,-3.46822 -2.65216,-3.43955 -4.69803,-5.7285c-3.16446,-3.54045 -6.91417,-6.1763 -10,-9.71629c-1.90602,-2.18654 -4.61463,-3.66596 -5.75926,-6.71932c-0.80142,-2.13783 -0.6093,-4.28369 -0.59071,-6.5224c0.3509,-1.20331 0.15825,-2.57353 0.57901,-3.74721c2.42813,-6.77315 9.51929,-9.40212 15.35508,-8.29372c1.79279,0.3405 4.90463,1.41125 6.45693,2.48114c0.04045,0.02788 2.25382,2.87661 2.55564,2.68255c0.42883,-0.2757 0.6022,-0.88957 0.90331,-1.33436c2.24133,-2.56205 4.42217,-5.51907 7.52165,-6.64421c5.31267,-1.92855 13.19468,1.51559 15.0586,7.81205c0.96105,3.24649 -0.12027,8.10089 -1.01051,11.15375c-0.76879,2.63113 -1.36829,5.3547 -2.62254,7.72946c-2.73487,5.17813 -7.18407,7.80764 -11.4654,10.79416c-3.06672,2.13925 -5.25597,4.92237 -7.71403,7.75449c0,0 -0.07486,0.08557 -0.20279,0.182z" fill="#ff88b6"/><path d="M219.53338,96.42143c-0.10175,-0.03396 -0.20773,-0.09758 -0.31371,-0.20357c-0.53033,-0.53033 0,-1.06066 0,-1.06066l1.03033,-0.71967c4.01695,0.09737 8.10636,-2.24047 12.14518,-2.79757c1.63794,-0.638 4.16865,-2.55821 5.94478,-1.32052c1.96056,1.36622 2.04731,4.7405 2.92549,6.7239c1.56689,3.53885 3.11509,7.26729 4.33318,10.95459c0.55456,1.67871 0.61817,3.49101 1.3813,5.01727c0,1.53679 1.06125,2.90099 -0.20636,4.20932c-0.45641,0.47107 -2.33984,1.02538 -2.94035,1.22583c-3.87544,1.29361 -8.03327,0.94803 -11.8852,1.96056c-1.61488,0.42449 -4.26607,3.55178 -6.22242,1.78237c-0.0232,-0.02098 -0.46054,-3.09822 -0.50594,-3.41477c-0.04567,-0.67387 -2.33923,-12.37737 -2.71107,-14.47774c-0.24835,-1.40284 -1.0569,-2.60426 -1.47926,-3.92404c-0.52977,-1.6554 -0.00178,-2.42762 -1.30967,-3.65888c0,0 -0.11717,-0.11717 -0.18629,-0.29643zM228.38325,102.09756c-1.18585,0.39528 -0.79057,1.58114 -0.79057,1.58114c0.58518,1.74956 1.47909,3.4534 1.97931,5.21714c0.26932,0.94961 -0.16003,2.53028 0.60354,3.26659c0.56224,0.54217 1.50625,0.50232 2.28729,0.50874c1.45629,0.01197 6.39646,-1.40811 7.42756,-2.44966c0.55835,-0.564 0.90065,-1.3754 0.99385,-2.16354c0.22753,-1.92403 -1.93209,-6.02392 -2.95548,-7.5095c-3.00098,-0.79397 -5.12051,-0.11283 -7.97407,0.8348l-0.85714,0.28571c0,0 -0.33256,0.11085 -0.58675,0.39127c-0.04146,0.01039 -0.08396,0.02278 -0.12753,0.0373z" fill="#ffdb00"/></g></g></svg>