<svg version="1.1" xmlns="http://www.w3.org/2000/svg" xmlns:xlink="http://www.w3.org/1999/xlink" width="40.38288" height="41.46351" viewBox="0,0,40.38288,41.46351"><g transform="translate(-219.80856,-159.26824)"><g data-paper-data="{&quot;isPaintingLayer&quot;:true}" fill="#1fff00" fill-rule="nonzero" stroke="none" stroke-width="0.5" stroke-linecap="butt" stroke-linejoin="miter" stroke-miterlimit="10" stroke-dasharray="" stroke-dashoffset="0" style="mix-blend-mode: normal"><path d="M222.46466,181.43502c-0.28917,-0.14111 -0.45239,-0.40019 -0.45239,-0.40019l-0.63424,-1.20476c-0.11804,-1.36305 -0.7923,-2.10968 -1.142,-3.40745c-0.75139,-2.78846 -0.15526,-5.70731 -0.42746,-8.46039c1.75987,-7.4674 8.73982,-9.21028 15.084,-6.73252c0.93448,0.36497 2.66543,1.5335 3.73436,2.83215c0.49377,-1.21061 1.2916,-2.31005 2.19623,-3.37062c8.94602,-4.18907 21.45632,1.14599 19.07171,12.38733c-1.04749,9.75786 -10.33709,16.84038 -16.27259,24.07838c-0.90645,1.10536 -2.55168,4.0376 -4.3778,3.51243c-1.71141,-0.49218 -2.73032,-3.25816 -3.78664,-4.46433c-4.10542,-4.6878 -10.28393,-9.00057 -12.99316,-14.77004z"/></g></g></svg>